<?xml version="1.0" encoding="utf-8"?>
<!-- Generator: Adobe Illustrator 23.0.2, SVG Export Plug-In . SVG Version: 6.00 Build 0)  -->
<svg version="1.1" id="Capa_1" xmlns="http://www.w3.org/2000/svg" xmlns:xlink="http://www.w3.org/1999/xlink" x="0px" y="0px"
	 viewBox="0 0 512 512" style="enable-background:new 0 0 512 512;" xml:space="preserve">
<style type="text/css">
	.st0{fill:#8DD9FF;}
	.st1{opacity:0.3;}
	.st2{fill:#FFFFF4;}
	.st3{opacity:0.4;}
	.st4{opacity:0.6;}
	.st5{fill:#FFFFFF;}
	.st6{opacity:0.2;}
	.st7{fill:#57B9E7;}
	.st8{fill:#B3F4EF;}
	.st9{fill:#FFF8DB;}
	.st10{fill:#8C665B;}
	.st11{fill:#43AB5F;}
	.st12{fill:#52C883;}
	.st13{fill:#34BE69;}
	.st14{fill:#674447;}
</style>
<g>
	<g>
		<circle class="st0" cx="256" cy="256" r="361.7"/>
	</g>
	<g class="st1">
		<path class="st2" d="M111.1-75.4C93.7-45.2,83.6-10.3,83.6,27.1c0,113.9,92.4,206.3,206.3,206.3S496.2,141,496.2,27.1
			c0-15.9-2-31.3-5.4-46.1c-63.2-54-145.2-86.7-234.9-86.7C204.4-105.7,155.4-94.9,111.1-75.4z"/>
	</g>
	<g class="st3">
		<circle class="st2" cx="289.9" cy="27.1" r="97"/>
	</g>
	<g class="st4">
		<path class="st5" d="M386.1,327.2c0-17.3-14-31.3-31.3-31.3c-2.6,0-5.1,0.4-7.5,1c-8.2-8.8-19.7-14.4-32.7-14.4
			c-24.7,0-44.7,20-44.7,44.7L386.1,327.2L386.1,327.2z"/>
	</g>
	<g>
		<path class="st5" d="M136.3,327.2c0-23.6-19.1-42.7-42.7-42.7c-3.6,0-7,0.6-10.3,1.4c-11.2-12-27-19.7-44.7-19.7
			c-33.7,0-61.1,27.3-61.1,61.1L136.3,327.2L136.3,327.2z"/>
	</g>
	<g>
		<path class="st5" d="M280.1,306.5c-2.2,0-4.2,0.4-6.2,1c-6.2-9-16.6-14.9-28.3-14.9s-22.1,5.9-28.3,14.9c-2-0.6-4-1-6.2-1
			c-11.4,0-20.7,9.3-20.7,20.7h110.5C300.9,315.8,291.6,306.5,280.1,306.5z"/>
	</g>
	<g>
		<path class="st5" d="M509.2,310.6c-1.8,0-3.4,0.3-5,0.8c-5-7.2-13.4-12-22.8-12s-17.8,4.7-22.8,12c-1.6-0.5-3.2-0.8-5-0.8
			c-9.2,0-16.7,7.5-16.7,16.7h89C525.9,318,518.4,310.6,509.2,310.6z"/>
	</g>
	<g class="st4">
		<path class="st5" d="M585.9,306.8c-2.1,0-4.2,0.4-6.1,1c-6.2-8.9-16.4-14.7-28-14.7s-21.8,5.8-28,14.7c-1.9-0.6-4-1-6.1-1
			c-11.3,0-20.5,9.2-20.5,20.5h109.2C606.3,315.9,597.2,306.8,585.9,306.8z"/>
	</g>
	<g class="st6">
		<path class="st7" d="M606.3,346.4H-39.8l58.4,135.6c0,0,166.9,98,215.3,109.3c19.9,4.6,54.8,12.5,88.9,20.1
			C461.1,585.6,571.6,481.3,606.3,346.4z"/>
	</g>
	<g>
		<path class="st8" d="M565.1,443.9c-63.9-25.8-179.3-43-311.3-43c-111.7,0-211.7,12.3-278.5,31.8l18.3,41.9
			c0,0,124.1,71.6,197.5,103.7c20.4,0.9,41.3,1.3,62.6,1.3c68.5,0,132.5-4.7,187.2-12.7C491.8,536.5,534.5,494.3,565.1,443.9z"/>
	</g>
	<g>
		<path class="st5" d="M551.5,464.5H81.1v33.1h444.1C534.6,487.1,543.4,476.1,551.5,464.5z"/>
	</g>
	<g>
		<path class="st9" d="M531.4,490.2H81.1c0,0,90.8,61.1,91.9,61.1c0.7,0,136.1,11.8,231.7,20.1c12.5-1.4,24.7-2.9,36.5-4.7
			C475.3,546.4,505.8,520.4,531.4,490.2z"/>
	</g>
	<g>
		<path class="st7" d="M256,364.8c126.9,0,242.5,15.2,329.5,40.2c8.5-18.8,15.7-38.3,20.9-58.6H-39.8l19.5,45.3
			C58.3,374.8,153.5,364.8,256,364.8z"/>
	</g>
	<g>
		<g>
			<g>
				<path class="st10" d="M-38.3,352.1c-4.2,0-8.3-2.4-10.2-6.4c-2.7-5.6-0.3-12.4,5.3-15.1C6.2,306.9,65.1,255,65.1,142.5
					c0-6.2,5.1-11.3,11.3-11.3c6.2,0,11.3,5.1,11.3,11.3c0,124.2-65.9,181.9-121.1,208.5C-35,351.7-36.7,352.1-38.3,352.1z"/>
			</g>
		</g>
		<g>
			<g>
				<g>
					<path class="st11" d="M80.9,131.9c0,0-68.1-1.8-70.5,68.1c0,0,7.7-6.3,10.4-12.1c0,0,1.7,3.5,0.5,7.2c0,0,6.4-6.2,8-13.1
						c0,0,1.2,2.6,0,6.3c0,0,6.7-5.5,8.5-9.8c0,0,1.1,2-0.4,4.7c0,0,6.3-5.5,7.9-13.3c0,0,1.9,1.8,1.4,5.9c0,0,7.5-8.9,8.3-14.1
						c0,0,2.6,1.1,1.1,5C56.2,166.7,74.7,152.9,80.9,131.9z"/>
				</g>
			</g>
			<g>
				<g>
					<path class="st11" d="M80.9,131.9c0,0,57.7,36.3,21,95.7c0,0-3-9.5-2-15.9c0,0-3.4,2-4.4,5.7c0,0-1.9-8.7,0.5-15.3
						c0,0-2.4,1.5-3.5,5.2c0,0-2.5-8.2-1.6-12.9c0,0-2,1-2.2,4.1c0,0-2.2-8.1,0.8-15.4c0,0-2.6,0.4-4.5,4.1c0,0-1.3-11.6,0.9-16.3
						c0,0-2.7-0.5-3.7,3.5C82.1,174.5,74.4,152.8,80.9,131.9z"/>
				</g>
			</g>
			<g>
				<g>
					<path class="st12" d="M80.9,131.9c0,0,7-70.8-60.8-77.7c0,0,5.5,8.4,11,11.6c0,0-3.6,1.6-7.1,0.1c0,0,5.5,7,12.1,9.2
						c0,0-2.6,1-6.1-0.4c0,0,4.8,7.3,8.9,9.5c0,0-2,1-4.5-0.7c0,0,4.9,6.9,12.3,9.1c0,0-1.9,1.9-5.8,1.1c0,0,8.1,8.4,13.1,9.6
						c0,0-1.2,2.6-4.9,0.8C48.9,104,60.9,124.1,80.9,131.9z"/>
				</g>
			</g>
			<g>
				<path class="st13" d="M80.9,131.9c0,0-51-57.6-111.1-5.3c0,0,11.2,1.5,18.1-0.8c0,0-1.6,4.2-5.6,6c0,0,10.1,0.5,17.1-3.5
					c0,0-1.2,2.9-5.2,4.9c0,0,9.7,1.2,14.7-0.6c0,0-0.8,2.4-4.2,3.3c0,0,9.4,1,17.2-3.8c0,0,0,3-3.8,5.8c0,0,13.3-0.7,18.2-4.1
					c0,0,1.1,3-3.3,4.8C32.8,138.5,58.6,143.1,80.9,131.9z"/>
			</g>
			<g>
				<path class="st13" d="M80.9,131.9c0,0,74.4-19.7,95.5,57.1c0,0-10.1-4.9-14.7-10.7c0,0-1,4.4,1.4,8.2c0,0-8.6-5.2-12.3-12.4
					c0,0-0.6,3.1,1.6,7c0,0-8.8-4.3-11.9-8.7c0,0-0.7,2.5,1.7,5.1c0,0-8.4-4.4-12.2-12.7c0,0-1.6,2.5,0,6.9c0,0-10.7-8-12.9-13.5
					c0,0-2.5,1.9,0.1,5.8C117.2,164,93.2,153.6,80.9,131.9z"/>
			</g>
			<g>
				<g>
					<path class="st12" d="M80.9,131.9c0,0,13.6-75.8,92.1-62.4c0,0-8.8,7.1-15.9,8.8c0,0,3.6,2.7,8,2.2c0,0-8.4,5.6-16.4,5.9
						c0,0,2.6,1.9,7,1.5c0,0-7.6,6.1-12.9,7.1c0,0,1.9,1.6,5.3,0.6c0,0-7.6,5.7-16.6,5.7c0,0,1.6,2.5,6.2,2.9c0,0-11.7,6.3-17.6,6
						c0,0,0.6,3.1,5.3,2.4C125.3,112.6,105.7,129.9,80.9,131.9z"/>
				</g>
			</g>
		</g>
	</g>
	<g>
		<g>
			<path class="st10" d="M39.9,473.2v-22.9c36.4,0,123.1-95.7,125.4-138.4l22.9,1.2C185.2,368.5,88.2,473.2,39.9,473.2z"/>
		</g>
	</g>
	<g>
		
			<ellipse transform="matrix(0.1602 -0.9871 0.9871 0.1602 216.7301 308.9219)" class="st5" cx="289.9" cy="27.1" rx="38.1" ry="38.1"/>
	</g>
	<g>
		<path class="st10" d="M187.6,504.7c-28-22.6-58.1-0.9-74.7-33.9c-9.8-19.4-53.5-6.2-74.7-22.6c-28-21.7-23.7-49.6-37.3-79.1
			c-17.5-38-61.5-64.4-103.6-67.5C-80.4,479.8,71.7,617.7,256,617.7c91.7,0,175.4-34.2,239.1-90.4c-28.4,0-217.5,0-245.3,0
			C219.8,527.3,204.2,518.1,187.6,504.7z"/>
	</g>
	<g>
		<g>
			<g>
				<path class="st11" d="M180,315.9c0,0-74.6-8.8-84.2,67.7c0,0,9.1-6.1,12.7-12.2c0,0,1.6,4.1-0.2,8c0,0,7.6-6.2,10.1-13.5
					c0,0,1,2.9-0.6,6.9c0,0,7.9-5.3,10.3-9.9c0,0,1,2.3-0.9,5.1c0,0,7.5-5.4,10-13.8c0,0,1.9,2.2,1,6.6c0,0,9.2-9.1,10.6-14.6
					c0,0,2.7,1.4,0.7,5.6C149.4,351.6,171.1,338.4,180,315.9z"/>
			</g>
		</g>
		<g>
			<g>
				<path class="st11" d="M180,315.9c0,0,59.7,45.6,13.4,107.2c0,0-2.3-10.7-0.6-17.6c0,0-4,1.8-5.4,5.9c0,0-1.2-9.7,2.1-16.8
					c0,0-2.8,1.4-4.4,5.4c0,0-1.9-9.3-0.5-14.3c0,0-2.3,0.9-2.9,4.3c0,0-1.6-9.1,2.4-16.9c0,0-2.9,0.2-5.3,4.1
					c0,0-0.3-12.9,2.6-17.9c0,0-3-0.9-4.4,3.5C177.1,362.8,170.8,338.3,180,315.9z"/>
			</g>
		</g>
		<g>
			<g>
				<path class="st12" d="M180,315.9c0,0,14.8-77.1-58.9-91.5c0,0,5.2,9.8,10.9,13.9c0,0-4.1,1.4-7.8-0.6c0,0,5.4,8.3,12.3,11.3
					c0,0-2.9,0.9-6.7-1c0,0,4.5,8.5,8.8,11.3c0,0-2.3,0.9-4.9-1.3c0,0,4.6,8.1,12.6,11.2c0,0-2.3,1.9-6.5,0.6
					c0,0,8.1,10.1,13.4,11.8c0,0-1.6,2.7-5.5,0.4C147.8,282.1,158.9,305.4,180,315.9z"/>
			</g>
		</g>
		<g>
			<path class="st13" d="M180,315.9c0,0-50.2-68.4-121.5-17c0,0,12.1,2.8,20,1c0,0-2.2,4.4-6.8,6.1c0,0,11,1.5,19.1-2.1
				c0,0-1.7,3.1-6.2,4.8c0,0,10.5,2.3,16.2,0.8c0,0-1.1,2.6-5,3.2c0,0,10.3,2,19.2-2.5c0,0-0.3,3.3-4.8,5.9c0,0,14.7,0.5,20.4-2.6
				c0,0,0.9,3.4-4.1,4.9C126.7,318.4,154.4,326,180,315.9z"/>
		</g>
		<g>
			<path class="st13" d="M180,315.9c0,0,83.7-14.2,99.1,72.3c0,0-10.6-6.4-15-13.2c0,0-1.5,4.7,0.7,9.1c0,0-9-6.6-12.2-14.8
				c0,0-1,3.4,1.1,7.8c0,0-9.2-5.6-12.2-10.7c0,0-1,2.6,1.4,5.8c0,0-8.8-5.7-12.1-15.2c0,0-2.1,2.6-0.7,7.6c0,0-10.9-9.8-12.8-16.1
				c0,0-3,1.8-0.5,6.4C216.6,354.8,191.4,341,180,315.9z"/>
		</g>
		<g>
			<g>
				<path class="st12" d="M180,315.9c0,0,22.5-81.8,107.4-59.2c0,0-10.3,6.9-18.3,8c0,0,3.6,3.4,8.5,3.2c0,0-9.8,5.3-18.6,4.8
					c0,0,2.7,2.3,7.5,2.3c0,0-9,5.9-14.9,6.5c0,0,2,2,5.8,1.2c0,0-8.9,5.5-18.8,4.6c0,0,1.4,2.9,6.6,3.8c0,0-13.5,5.7-20,4.8
					c0,0,0.4,3.5,5.6,3.1C230.7,299.2,207.5,316.2,180,315.9z"/>
			</g>
		</g>
	</g>
	<g>
		<path class="st10" d="M457,199.5h-22.6c0,119.2,37,208.1,112.7,271.3c4.5-6.1,8.7-12.3,12.9-18.7C490.8,393.4,457,310.7,457,199.5
			z"/>
	</g>
	<g>
		<g>
			<g>
				<path class="st11" d="M443,196.2c0,0-82.5,34.8-47.5,119.8c0,0,5.9-11.7,5.9-20.2c0,0,4,3.3,4.5,8.4c0,0,4.3-10.9,2.5-20
					c0,0,2.8,2.4,3.4,7.5c0,0,5-10.2,4.8-16.4c0,0,2.4,1.8,2,5.9c0,0,4.6-10,2.2-20.2c0,0,3.3,1.1,4.9,6.3c0,0,4.2-14.8,2.3-21.4
					c0,0,3.7-0.1,4,5.3C432.4,251.2,447,224.7,443,196.2z"/>
			</g>
		</g>
		<g>
			<g>
				<path class="st11" d="M443,196.2c0,0,88.8,12.1,77.1,103.3c0,0-8.7-9.8-11-17.9c0,0-3,4.2-2.2,9.3c0,0-7-9.4-7.7-18.6
					c0,0-2,3.1-1.4,8.1c0,0-7.5-8.5-8.9-14.6c0,0-1.8,2.3-0.4,6.2c0,0-7-8.5-7.4-18.9c0,0-2.9,1.9-3.1,7.3c0,0-7.9-13.2-7.8-20
					c0,0-3.6,0.9-2.5,6.2C467.7,246.5,446.6,224.7,443,196.2z"/>
			</g>
		</g>
		<g>
			<g>
				<path class="st12" d="M443,196.2c0,0-30-88.6-115-60.1c0,0,11.2,7.1,19.5,8c0,0-3.4,3.9-8.4,3.9c0,0,10.4,5.4,19.5,4.5
					c0,0-2.5,2.6-7.5,2.9c0,0,9.7,6.1,15.8,6.5c0,0-1.8,2.3-5.8,1.6c0,0,9.6,5.7,19.7,4.2c0,0-1.2,3.3-6.4,4.5
					c0,0,14.3,5.7,20.9,4.4c0,0-0.1,3.8-5.4,3.7C389.7,180.1,414.9,197.7,443,196.2z"/>
			</g>
		</g>
		<g>
			<path class="st13" d="M443,196.2c0,0-92.4-41.3-136,53.9c0,0,14.2-4.3,21.3-10.8c0,0,0.4,5.9-3.5,10.3c0,0,12.3-4.9,18.6-13.5
				c0,0,0.1,4.2-3.6,8.7c0,0,12.3-3.8,17.3-8.7c0,0,0.4,3.3-3.3,6.3c0,0,11.8-4,18.5-13.9c0,0,1.6,3.6-1.4,9c0,0,15.5-8.1,19.6-14.7
				c0,0,2.9,3-1.3,7.5C389.2,230.1,422.5,221.7,443,196.2z"/>
		</g>
		<g>
			<path class="st13" d="M443,196.2c0,0,78.4-64,145.3,16.6c0,0-14.8-0.4-23.4-4.9c0,0,1.2,5.8,6,9c0,0-13.2-1.5-21.4-8.2
				c0,0,1,4.1,5.7,7.4c0,0-12.8-0.4-19-3.9c0,0,0.5,3.3,4.8,5.2c0,0-12.5-0.8-21.5-8.6c0,0-0.6,3.9,3.7,8.3c0,0-17.1-3.7-22.7-9.1
				c0,0-2,3.6,3.3,6.9C503.9,214.9,469.6,215.4,443,196.2z"/>
		</g>
		<g>
			<g>
				<path class="st12" d="M443,196.2c0,0-24.9-98.1,76.5-124.7c0,0-6.6,13.3-14.3,19.1c0,0,5.7,1.4,10.7-1.7c0,0-7,11.3-16.4,16
					c0,0,4.1,0.8,9.2-2c0,0-5.8,11.4-11.6,15.6c0,0,3.2,0.9,6.7-2.2c0,0-6,11-16.9,15.8c0,0,3.2,2.2,9.1,0.1
					c0,0-10.6,13.9-17.9,16.7c0,0,2.4,3.4,7.6,0C485.8,148.9,471.7,180.3,443,196.2z"/>
			</g>
		</g>
	</g>
	<g>
		<path class="st14" d="M-14.6,405c-20-40.5-45.9-39.1-74.7-41.5c45.8,147.2,183,254.2,345.3,254.2c70.9,0,137-20.5,192.9-55.8
			c-18.1-2.6-38.4-8.2-73.8,7c-17.7,7.6-42.4-25.4-58.8-27.4c-46-5.7-96.1,30-126,5.7c-38.3-31.3-54.4-2.8-85.2-16.3
			c-30.8-13.4-14.5-38.5-26.8-51.9C58.6,457.6,14.8,464.5-14.6,405z"/>
	</g>
</g>
</svg>
