<?xml version="1.0" encoding="utf-8"?>
<!-- Generator: Adobe Illustrator 23.0.2, SVG Export Plug-In . SVG Version: 6.00 Build 0)  -->
<svg version="1.1" id="Capa_1" xmlns="http://www.w3.org/2000/svg" xmlns:xlink="http://www.w3.org/1999/xlink" x="0px" y="0px"
	 viewBox="0 0 512 512" style="enable-background:new 0 0 512 512;" xml:space="preserve">
<style type="text/css">
	.st0{fill:#FFDA9C;}
	.st1{fill:#E0B587;}
	.st2{fill:#CA9F7C;}
	.st3{fill:#A07766;}
	.st4{fill:#795552;}
	.st5{fill:#E9B668;}
	.st6{opacity:0.5;}
	.st7{fill:#674447;}
	.st8{fill:#8C665B;}
	.st9{fill:#EDC08E;}
</style>
<g>
	<g>
		<path class="st0" d="M256-105.4C56.7-105.4-105.4,56.7-105.4,256S56.7,617.4,256,617.4S617.4,455.3,617.4,256
			S455.3-105.4,256-105.4z"/>
	</g>
	<g>
		<path class="st1" d="M353.9,244.7c-18.8,0-36.2-17.8-61.7-17.8s-47.1,17.8-64.7,17.8s-28,11.3-28,11.3h140.7L353.9,244.7z"/>
	</g>
	<g>
		<path class="st2" d="M301.2,244.7c-17.6,0-64.9-22.6-90.4-22.6s-61.4,22.6-79.1,22.6S109.2,256,109.2,256h192V244.7z"/>
	</g>
	<g>
		<path class="st3" d="M481.9,131.8c-25.4-6.4-67.8-9.4-101.7,22.6C342.8,189.6,314.8,256,256,256h203.3l33.9-101.7L481.9,131.8"/>
	</g>
	<g>
		<path class="st4" d="M481.9,131.8c-4.5-1.1-9.6-2.1-15-2.9c-17.6,2.6-36.2,9.8-52.8,25.5C376.7,189.6,348.7,256,289.9,256h169.4
			l33.9-101.7L481.9,131.8z"/>
	</g>
	<g>
		<path class="st3" d="M-43.1,53.3c-19.1,28.1-34.3,59-44.9,92l118.1,43l119.4,38.6C54.9,170.1,75.7,73.6-43.1,53.3z"/>
	</g>
	<g>
		<path class="st4" d="M-47,59.4c-19,29.2-33.9,61.3-43.9,95.4L1,188.2l119.4,38.6C33.2,174.5,44,88.4-47,59.4z"/>
	</g>
	<g>
		<path class="st5" d="M256,617.4c199.3,0,361.4-162.1,361.4-361.4h-722.9C-105.4,455.3,56.7,617.4,256,617.4z"/>
	</g>
	<g class="st6">
		<path class="st0" d="M256,346.4c141.6,0,273-49.8,360-58.7c0.9-10.5,1.5-21,1.5-31.7h-722.9c0,10.7,0.6,21.2,1.5,31.7
			C-17,296.6,114.4,346.4,256,346.4z"/>
	</g>
	<g>
		<path class="st7" d="M431.5,571.8C370.6,462.3,256,256,256,256L80.5,571.8c52,29,111.8,45.6,175.5,45.6S379.5,600.8,431.5,571.8z"
			/>
	</g>
	<g>
		<path class="st8" d="M305.1,344.4C276.7,293.2,256,256,256,256l-49.1,88.4c16.2,1.2,32.6,1.9,49.1,1.9S288.9,345.6,305.1,344.4z"
			/>
	</g>
	<g>
		<g>
			<g>
				<path class="st8" d="M68.9,459.3c-6.2,0-11.3-5.1-11.3-11.3v-113c0-6.2,5.1-11.3,11.3-11.3s11.3,5.1,11.3,11.3v113
					C80.2,454.3,75.2,459.3,68.9,459.3z"/>
			</g>
		</g>
		<g>
			<g>
				<path class="st8" d="M80.2,425.4H57.6c-18.7,0-33.9-15.2-33.9-33.9V369c0-6.2,5.1-11.3,11.3-11.3s11.3,5.1,11.3,11.3v22.6
					c0,6.2,5.1,11.3,11.3,11.3h22.6c6.2,0,11.3-5.1,11.3-11.3v-33.9c0-6.2,5.1-11.3,11.3-11.3s11.3,5.1,11.3,11.3v33.9
					C114.1,410.2,98.9,425.4,80.2,425.4z"/>
			</g>
		</g>
	</g>
	<g>
		<g>
			<g>
				<path class="st3" d="M353.9,323.8c-2.3,0-4.2-1.9-4.2-4.2v-41.8c0-2.3,1.9-4.2,4.2-4.2c2.3,0,4.2,1.9,4.2,4.2v41.8
					C358.1,321.9,356.2,323.8,353.9,323.8z"/>
			</g>
		</g>
		<g>
			<g>
				<path class="st3" d="M358.1,311.2h-8.4c-6.9,0-12.5-5.6-12.5-12.5v-8.4c0-2.3,1.9-4.2,4.2-4.2s4.2,1.9,4.2,4.2v8.4
					c0,2.3,1.9,4.2,4.2,4.2h8.4c2.3,0,4.2-1.9,4.2-4.2v-12.5c0-2.3,1.9-4.2,4.2-4.2s4.2,1.9,4.2,4.2v12.5
					C370.6,305.6,365,311.2,358.1,311.2z"/>
			</g>
		</g>
	</g>
	<g>
		<path class="st8" d="M481.9,391.5c-6.2,0-11.3,5.1-11.3,11.3v22.6c0,6.2-5.1,11.3-11.3,11.3v-79.1c0-6.2-5.1-11.3-11.3-11.3
			c-6.2,0-11.3,5.1-11.3,11.3v56.5c-6.2,0-11.3-5.1-11.3-11.3v-11.3c0-6.2-5.1-11.3-11.3-11.3s-11.3,5.1-11.3,11.3v11.3
			c0,18.7,15.2,33.9,33.9,33.9v22.6c0,6.2,5.1,11.3,11.3,11.3c6.2,0,11.3-5.1,11.3-11.3c18.7,0,33.9-15.2,33.9-33.9v-22.6
			C493.2,396.6,488.1,391.5,481.9,391.5z"/>
	</g>
	<g>
		<path class="st9" d="M184.7,30.4c-2.1,0-4.2,0.4-6.1,1c-6.2-8.9-16.4-14.7-28-14.7c-11.6,0-21.8,5.8-28,14.7c-1.9-0.6-4-1-6.1-1
			c-11.3,0-20.5,9.2-20.5,20.5h109.2C205.2,39.6,196,30.4,184.7,30.4z"/>
	</g>
	<g>
		<path class="st9" d="M316.5-8.4c-1.5,0-3,0.3-4.4,0.7c-4.4-6.3-11.7-10.5-20-10.5c-8.3,0-15.6,4.2-20,10.5
			c-1.4-0.4-2.8-0.7-4.4-0.7c-8.1,0-14.6,6.5-14.6,14.6h78C331.1-1.8,324.6-8.4,316.5-8.4z"/>
	</g>
	<g>
		<path class="st9" d="M72.8,33.8c0-11.7,9.5-21.1,21.1-21.1c1.8,0,3.4,0.3,5.1,0.7c5.5-6,13.3-9.7,22.1-9.7
			c16.7,0,30.2,13.5,30.2,30.2H72.8z"/>
	</g>
	<g>
		<path class="st9" d="M331.1,53.2c0-15,12.2-27.2,27.2-27.2c2.3,0,4.4,0.4,6.5,0.9c7.1-7.7,17.2-12.6,28.5-12.6
			c21.5,0,38.9,17.4,38.9,38.9H331.1z"/>
	</g>
	<g>
		<path class="st9" d="M398.1,39.6c0-10.1,8.2-18.4,18.4-18.4c1.5,0,3,0.2,4.4,0.6c4.8-5.2,11.6-8.5,19.2-8.5
			c14.5,0,26.3,11.8,26.3,26.3H398.1z"/>
	</g>
	<g>
		<path class="st8" d="M-60.3,120.5H-79c-17,41.9-26.5,87.6-26.5,135.5h338.9C142.3,256,42.8,120.5-60.3,120.5z"/>
	</g>
	<g>
		<path class="st8" d="M323.8,256h293.7c0-70.3-20.2-135.9-55.1-191.4C432,115.1,461.3,256,323.8,256z"/>
	</g>
	<g>
		<g>
			<path class="st5" d="M288.7,615.8L256,256l10.9,361.1C274.3,616.9,281.5,616.4,288.7,615.8z"/>
		</g>
		<g>
			<path class="st5" d="M245.1,617.1L256,256l-32.7,359.8C230.5,616.4,237.7,616.9,245.1,617.1z"/>
		</g>
	</g>
	<g>
		<path class="st0" d="M256,256L80.5,571.8c6,3.4,12.2,6.5,18.4,9.5L256,256z"/>
	</g>
	<g>
		<path class="st0" d="M256,256l175.5,315.8c-6,3.4-12.2,6.5-18.4,9.5L256,256z"/>
	</g>
	<g>
		<path class="st7" d="M-81,125.6c-15.7,40.5-24.4,84.4-24.4,130.4h282.4C96.4,256,9.3,150.2-81,125.6z"/>
	</g>
	<g>
		<path class="st3" d="M156.8,294.3c-2.5,0-4.6,2-4.6,4.6v9.1c0,2.5-2,4.6-4.6,4.6v-32c0-2.5-2-4.6-4.6-4.6s-4.6,2-4.6,4.6v22.8
			c-2.5,0-4.6-2.1-4.6-4.6v-4.6c0-2.5-2-4.6-4.6-4.6s-4.6,2-4.6,4.6v4.6c0,7.6,6.1,13.7,13.7,13.7v9.1c0,2.5,2,4.6,4.6,4.6
			s4.6-2,4.6-4.6c7.6,0,13.7-6.1,13.7-13.7v-9.1C161.3,296.4,159.3,294.3,156.8,294.3z"/>
	</g>
	<g>
		<path class="st8" d="M547.1,316.6c-3.7,0-6.7,3-6.7,6.7v13.3c0,3.7-3,6.7-6.7,6.7v-46.7c0-3.7-3-6.7-6.7-6.7s-6.7,3-6.7,6.7v33.4
			c-3.7,0-6.7-3-6.7-6.7v-6.7c0-3.7-3-6.7-6.7-6.7c-3.7,0-6.7,3-6.7,6.7v6.7c0,11,9,20,20,20v13.3c0,3.7,3,6.7,6.7,6.7
			s6.7-3,6.7-6.7c11,0,20-9,20-20v-13.3C553.8,319.6,550.8,316.6,547.1,316.6z"/>
	</g>
	<g>
		<path class="st8" d="M-6.4,316.6c-3.7,0-6.7,3-6.7,6.7v13.3c0,3.7-3,6.7-6.7,6.7v-46.7c0-3.7-3-6.7-6.7-6.7s-6.7,3-6.7,6.7v33.4
			c-3.7,0-6.7-3-6.7-6.7v-6.7c0-3.7-3-6.7-6.7-6.7c-3.7,0-6.7,3-6.7,6.7v6.7c0,11,9,20,20,20v13.3c0,3.7,3,6.7,6.7,6.7
			s6.7-3,6.7-6.7c11,0,20-9,20-20v-13.3C0.3,319.6-2.7,316.6-6.4,316.6z"/>
	</g>
	<g>
		<path class="st7" d="M357.7,256h259.8c0-65-17.3-126-47.5-178.8C469.4,135.2,485,256,357.7,256z"/>
	</g>
</g>
</svg>
