<?xml version="1.0" encoding="utf-8"?>
<!-- Generator: Adobe Illustrator 23.0.2, SVG Export Plug-In . SVG Version: 6.00 Build 0)  -->
<svg version="1.1" id="Capa_1" xmlns="http://www.w3.org/2000/svg" xmlns:xlink="http://www.w3.org/1999/xlink" x="0px" y="0px"
	 viewBox="0 0 512 512" style="enable-background:new 0 0 512 512;" xml:space="preserve">
<style type="text/css">
	.st0{fill:#8DD9FF;}
	.st1{fill:#E5D7A8;}
	.st2{opacity:0.3;}
	.st3{fill:#FFFFF4;}
	.st4{fill:#FFC868;}
	.st5{fill:#FFDC87;}
	.st6{fill:#F9BE58;}
	.st7{fill:#FFD267;}
	.st8{fill:#ECAB4E;}
	.st9{fill:#FFC353;}
	.st10{opacity:0.5;}
	.st11{fill:#FFFFFF;}
	.st12{opacity:0.4;}
</style>
<g>
	<g>
		<circle class="st0" cx="256" cy="256" r="371.2"/>
	</g>
	<g>
		<path class="st1" d="M626.2,282.4c0.6-8.7,1-17.5,1-26.4c0-13.3-0.7-26.4-2.1-39.3c-14,2.4-83.1,20.5-99.2,21
			c-17.2,0.5-42.3-16-54.8-11.6c-12.6,4.4-97.7,17.2-102,17.2c-4.3-0.1-50-18.4-59.5-18.4c-9.4,0-84.8,21.8-106.6,17.9
			s-55.8-21.9-65.8-21.9S8,258.9-33.8,234.7s-56.1-12-80.6,2.5l-0.4,1.1c-0.3,5.9-0.4,11.8-0.4,17.7c0,26.6,2.9,52.5,8.2,77.6
			l563.3,23.9L626.2,282.4z"/>
	</g>
	<g class="st2">
		<path class="st3" d="M256-115.2C153.4-115.2,60.6-73.6-6.6-6.4C36.1,96.6,137.6,169,256,169S475.9,96.6,518.6-6.4
			C451.4-73.6,358.6-115.2,256-115.2z"/>
	</g>
	<g>
		<path class="st4" d="M392.9,218.9c-28.8,0-109.4,65.7-163.1,75.1c37.3,51.5,90,83.7,148.5,83.7c59.3,0,112.7-33,150-85.8
			C497.4,277.3,425.6,218.9,392.9,218.9z"/>
	</g>
	<g>
		<path class="st5" d="M525.9,290.7c-32-16.3-101.1-71.8-133-71.8c-1,0-2.2,0.3-3.4,0.4c-12.7,3.7-23.4,26.5-11.2,52.5
			c11.7,25,32,64,0,105.9l0,0c21.2,0,56.4,16.5,83.5,19.8C490.2,368.7,512.5,332.1,525.9,290.7z"/>
	</g>
	<g>
		<path class="st6" d="M532.1,421.6c31.5-50,50.7-103.8,68.2-160.7c0.9-2.8,1.9-5.4,3-7.9c-23.9-14-46.3-24.5-61.6-24.5
			c-23.7,0-76.1,36.4-127.8,63.7c2.5,38.4,10.8,75.3,24.1,109.7c26.8,12.9,55.7,20.1,86,20.1C526.7,421.8,529.4,421.7,532.1,421.6z"
			/>
	</g>
	<g>
		<path class="st7" d="M541.7,228.5c-1.2,0-2.7,0.3-4.1,0.5c-15.4,4.5-28.5,32.3-13.7,63.9c14.3,30.4,38.9,77.9,0,128.9l0,0.1
			c15,0,35.9,6.8,57.2,13.3c27.6-50,43.9-107,45.8-167.7C594.8,247,562.1,228.5,541.7,228.5z"/>
	</g>
	<g>
		<path class="st4" d="M-114.4,280.1c2.5,38.4,10.8,75.3,24.1,109.7c26.8,12.9,55.7,20.1,86,20.1c72.2,0,137.2-40.2,182.6-104.4
			c-37.6-17.8-125-89-164.9-89C-10.2,216.4-62.7,252.8-114.4,280.1z"/>
	</g>
	<g>
		<path class="st5" d="M175.4,303.9c-39-19.8-123.1-87.5-162-87.5c-1.2,0-2.7,0.3-4.1,0.5c-15.4,4.5-28.5,32.3-13.7,63.9
			c14.3,30.4,38.9,77.9,0,128.9c0,0,0,0.1,0,0.1c25.8,0,68.6,20.1,101.6,24.1C131.9,398.8,159,354.3,175.4,303.9z"/>
	</g>
	<g>
		<path class="st6" d="M230.5,228.5c-35,0-133.1,80-198.6,91.5c45.4,62.7,109.6,101.9,180.8,101.9c72.2,0,137.2-40.2,182.6-104.4
			C357.8,299.6,270.4,228.5,230.5,228.5z"/>
	</g>
	<g>
		<path class="st7" d="M392.5,315.9c-39-19.8-123.1-87.5-162-87.5c-1.2,0-2.7,0.3-4.1,0.5c-15.4,4.5-28.5,32.3-13.7,63.9
			c14.3,30.4,38.9,77.9,0,128.9l0,0.1c25.8,0,68.6,20.1,101.6,24.1C349,410.8,376.1,366.3,392.5,315.9z"/>
	</g>
	<g>
		<g>
			<path class="st6" d="M564.7,388.2c0.1-1.5,0.2-3.1,0.2-4.6c0-6.3,1.3-12.2,3.2-17.8C512.7,334.5,434.8,285,394.5,285
				c-45.4,0-172.5,91.1-257.2,104.3c58.8,71.5,142,116.2,234.2,116.2c75.2,0,144.3-29.7,199.1-79.3
				C564.5,414.7,562.6,401,564.7,388.2z"/>
		</g>
		<g>
			<path class="st7" d="M604.3,384.7C553.8,362.1,444.9,285,394.5,285c-1.6,0-3.5,0.4-5.3,0.6c-20,5.2-36.9,36.8-17.7,72.9
				c18.5,34.7,50.4,88.8,0,146.9l0,0.1c33.4,0,88.9,22.9,131.7,27.5C548,492.9,583.1,442.2,604.3,384.7z"/>
		</g>
	</g>
	<g>
		<g>
			<path class="st6" d="M67.8,308.2c-29.6,0-96.1,43.5-160.8,74.7c19.7,54.1,51.7,102.3,92.5,141.4c15.2,2.8,30.7,4.4,46.5,4.4
				c88.3,0,167.8-45.8,223.5-119C223.5,389.3,116.5,308.2,67.8,308.2z"/>
		</g>
		<g>
			<path class="st7" d="M269.5,409.6c-46-20.3-153-101.4-201.7-101.4c-1.5,0-3.3,0.4-5,0.6c-18.9,5.2-34.9,36.8-16.7,72.9
				c17.5,34.7,47.6,88.8,0,146.9l0,0.1C134.4,528.6,213.9,482.8,269.5,409.6z"/>
		</g>
	</g>
	<g>
		<path class="st8" d="M282.5,406.8C230.2,406.8,84,498-13.6,511.1C54.1,582.6,149.8,627.2,256,627.2c107.6,0,204.5-45.8,272.3-119
			C472.2,487.9,341.9,406.8,282.5,406.8z"/>
	</g>
	<g>
		<path class="st9" d="M528.3,508.2c-56.1-20.3-186.4-101.4-245.8-101.4c-1.8,0-4.1,0.4-6.1,0.6c-23,5.2-42.5,36.8-20.4,72.9
			c21.3,34.7,58,88.8,0,146.9c0,0,0.1,0.1,0.1,0.1C363.7,627.2,460.5,581.4,528.3,508.2z"/>
	</g>
	<g class="st10">
		<path class="st11" d="M-24.7,95.7c0-9.1,18.4-16.5,41.2-16.5c3.4,0,6.7,0.2,9.9,0.5c10.8-4.6,26-7.6,43.1-7.6
			c32.5,0,58.9,10.6,58.9,23.6H-24.7z"/>
	</g>
	<g>
		<path class="st11" d="M247.1,95.7c0-7.1,14.5-12.9,32.3-12.9c2.7,0,5.3,0.2,7.8,0.4c8.4-3.6,20.4-6,33.8-6
			c25.5,0,46.2,8.3,46.2,18.5H247.1z"/>
	</g>
	<g>
		<path class="st11" d="M222.3,74.8c0-9.1-18.1-16.5-40.3-16.5c-3.4,0-6.6,0.2-9.7,0.5c-10.5-4.6-25.5-7.6-42.2-7.6
			c-31.8,0-57.6,10.6-57.6,23.6H222.3z"/>
	</g>
	<g class="st10">
		<path class="st11" d="M473,61.4c0-7.8-15.6-14.2-34.8-14.2c-2.9,0-5.7,0.2-8.4,0.5c-9.1-4-21.9-6.6-36.3-6.6
			c-27.4,0-49.6,9.1-49.6,20.3H473z"/>
	</g>
	<g class="st10">
		<path class="st11" d="M534.5,82c0-5.8-11.4-10.5-25.6-10.5c-2.1,0-4.2,0.1-6.1,0.3c-6.7-2.9-16.1-4.8-26.7-4.8
			c-20.2,0-36.5,6.7-36.5,14.9H534.5z"/>
	</g>
	<g>
		<path class="st11" d="M256-115.2c-26.7,0-52.8,2.9-77.9,8.2c4.1,39.4,37.4,70.1,77.9,70.1s73.7-30.7,77.9-70.1
			C308.8-112.4,282.7-115.2,256-115.2z"/>
	</g>
	<g class="st12">
		<path class="st3" d="M256-115.2c-54.4,0-106,11.8-152.5,32.8C118.6-12.1,181.1,40.8,256,40.8S393.4-12.1,408.5-82.5
			C362-103.5,310.4-115.2,256-115.2z"/>
	</g>
</g>
</svg>
