<?xml version="1.0" encoding="utf-8"?>
<!-- Generator: Adobe Illustrator 23.0.2, SVG Export Plug-In . SVG Version: 6.00 Build 0)  -->
<svg version="1.1" id="Capa_1" xmlns="http://www.w3.org/2000/svg" xmlns:xlink="http://www.w3.org/1999/xlink" x="0px" y="0px"
	 viewBox="0 0 512 512" style="enable-background:new 0 0 512 512;" xml:space="preserve">
<style type="text/css">
	.st0{fill:#9AF4EF;}
	.st1{opacity:0.3;}
	.st2{fill:#FFFFF4;}
	.st3{fill:#36B294;}
	.st4{opacity:0.4;}
	.st5{fill:#674447;}
	.st6{fill:#43AB5F;}
	.st7{fill:#71BE63;}
	.st8{opacity:0.6;}
	.st9{fill:#FFFFFF;}
	.st10{fill:#00A07D;}
	.st11{fill:#94D75B;}
	.st12{fill:#B0EB81;}
</style>
<g>
	<g>
		<circle class="st0" cx="256" cy="256" r="361.7"/>
	</g>
	<g class="st1">
		<path class="st2" d="M469.9-35.7C309.8,7.1,191.8,153.1,191.8,326.7c0,114,50.9,216,131.2,284.8C490.7,580,617.7,432.9,617.7,256
			C617.7,136.3,559.5,30.2,469.9-35.7z"/>
	</g>
	<g>
		<path class="st3" d="M198.1,196.7c-15.9-13.1-38.9-1.5-51.2-12.1c-16.5-14.2-20.3-17.9-35.4-21.7c-13.8-3.5-26.3,4.5-39.5-13.2
			c-9.5-12.7-18.5-11.4-30-8.6c-11.5,2.8-15-0.3-30.5-13.1c-10.2-8.5-19.6-11.5-40.8-10.8c-17.9,0.6-31.9-3.4-45-8.3
			c-12.6,28.2-21.7,58.2-26.7,89.6c51.2,5.4,66.6,3,86.5,9.5C7.3,215,220.2,258.1,224,256c3.8-2.1,6.3-35.8,6.3-35.8
			C208.9,216.4,208.6,205.4,198.1,196.7z"/>
	</g>
	<g class="st4">
		<path class="st2" d="M401.1,326.7c0,79.9,56.5,146.5,131.6,162.2c53-62.9,85-144.2,85-232.9c0-31.1-3.9-61.4-11.3-90.2
			c-12.7-3.1-25.9-4.9-39.5-4.9C475.3,160.9,401.1,235.1,401.1,326.7z"/>
	</g>
	<g>
		<g>
			<g>
				<path class="st5" d="M491.3,285.7c-3.9,0-7.1-3.2-7.1-7.1v-76.9c0-3.9,3.2-7.1,7.1-7.1c3.9,0,7.1,3.2,7.1,7.1v76.9
					C498.4,282.5,495.2,285.7,491.3,285.7z"/>
			</g>
		</g>
		<g>
			<g>
				<path class="st6" d="M536.2,195.1c0,24.8-20.1,45-45,45s-45-20.1-45-45s20.1-101.2,45-101.2C516.1,93.9,536.2,170.3,536.2,195.1
					z"/>
			</g>
		</g>
		<g>
			<g>
				<path class="st7" d="M491.3,93.9c-6.2,0-12.2,4.8-17.6,12.4h0c22.7,0,41.2,69.9,41.2,92.6c0,19.8-14,36.3-32.6,40.2
					c2.9,0.6,5.9,0.9,9,0.9c24.8,0,45-20.1,45-45C536.2,170.3,516.1,93.9,491.3,93.9z"/>
			</g>
		</g>
	</g>
	<g class="st8">
		<path class="st9" d="M129.7,94.4c0-14.9,12.1-27.1,27.1-27.1c2.3,0,4.4,0.4,6.5,0.9c7.1-7.6,17.1-12.5,28.3-12.5
			c21.3,0,38.7,17.3,38.7,38.7L129.7,94.4L129.7,94.4z"/>
	</g>
	<g class="st8">
		<path class="st9" d="M126.4-13.9c0-13.3,10.8-24.2,24.2-24.2c2,0,3.9,0.3,5.8,0.8c6.3-6.8,15.2-11.1,25.3-11.1
			c19.1,0,34.5,15.5,34.5,34.5H126.4z"/>
	</g>
	<g class="st8">
		<path class="st9" d="M459.5,13.8c0-10.7-8.7-19.4-19.4-19.4c-1.6,0-3.2,0.3-4.7,0.6c-5.1-5.5-12.2-8.9-20.3-8.9
			c-15.3,0-27.7,12.4-27.7,27.7H459.5z"/>
	</g>
	<g>
		<path class="st10" d="M267.1,244.7c-9.5,0-11.1-9.4-12-11.3c-10.4-21.2-23-11.3-43.7-11.3c-16.2,0-19.5-23.6-28.5-22.6
			s-23.6,16-36.1,11.3c-18-6.8-18.5-17-36.1-22.6c-15.5-5-28.6-1.4-36.1-11.3c-14.6-19.3-25.2,1.8-48.1-11.3
			C3.3,152.3-4,176.9-21.5,176.9c-18.4,0-12-22.6-36.1-22.6c-13.6,0-21.7,16.6-38.9,21.3c-6,25.9-9.2,52.8-9.2,80.4
			c0,14.3,0.9,28.3,2.6,42.1c5.5,5.1,11.5,9.6,17.5,12.2c21.5,9.2,473.1,17.2,473.1,17.2v-37.6c-33.1,0-33.1-22.6-60.1-22.6
			C290.8,267.3,294.2,244.7,267.1,244.7z"/>
	</g>
	<g>
		<path class="st11" d="M45.5,506.9l334.9-179.4l-8.5-18.3c-81.1,0-221.8-82.4-477.6-53.2c0,90.1,33,172.4,87.5,235.8
			C16,499.9,45.5,506.9,45.5,506.9z"/>
	</g>
	<g>
		<path class="st12" d="M371.9,309.2c-74.4,0-198.9-69.2-416.3-58.2c193.3,0.2,311.8,86.7,372.5,86.7l17-6.3l27.4-21L371.9,309.2z"
			/>
	</g>
	<g>
		<path class="st9" d="M149,63.4c-3.3,0-6.3,0.6-9.3,1.6c-9.3-13.4-24.8-22.2-42.4-22.2s-33.1,8.8-42.4,22.2c-2.9-0.9-6-1.6-9.3-1.6
			c-17.1,0-31,13.9-31,31H180C180,77.3,166.1,63.4,149,63.4z"/>
	</g>
	<g>
		<path class="st9" d="M391.6,34.6c-3.6,0-6.9,0.7-10.1,1.7C371.3,21.7,354.4,12,335.1,12s-36.2,9.6-46.4,24.3
			c-3.2-1-6.6-1.7-10.1-1.7c-18.7,0-33.9,15.2-33.9,33.9h180.9C425.6,49.8,410.4,34.6,391.6,34.6z"/>
	</g>
	<g>
		<path class="st9" d="M155.3,12c0-20,16.2-36.3,36.3-36.3c3,0,5.9,0.5,8.7,1.2c9.5-10.2,22.9-16.7,37.9-16.7
			c28.6,0,51.8,23.2,51.8,51.8H155.3z"/>
	</g>
	<g>
		<path class="st7" d="M-73.7,404.8c56.7,125.5,183,213,329.7,213c199.8,0,361.7-162,361.7-361.7c0-3.8-0.2-7.5-0.3-11.3
			C393.8,245.8,292.3,403-73.7,403V404.8z"/>
	</g>
	<g>
		<g>
			<g>
				<path class="st5" d="M387.4,331.4c-4.5,0-8.1-3.6-8.1-8.1V236c0-4.5,3.6-8.1,8.1-8.1c4.5,0,8.1,3.6,8.1,8.1v87.2
					C395.5,327.7,391.9,331.4,387.4,331.4z"/>
			</g>
		</g>
		<g>
			<g>
				<path class="st6" d="M438.5,228.6c0,28.2-22.9,51-51,51c-28.2,0-51-22.9-51-51s22.9-114.8,51-114.8S438.5,200.4,438.5,228.6z"/>
			</g>
		</g>
		<g>
			<g>
				<path class="st7" d="M387.4,113.8c-7.1,0-13.8,5.5-19.9,14.1h0c25.8,0,46.7,79.3,46.7,105.1c0,22.4-15.8,41.2-36.9,45.7
					c3.3,0.7,6.7,1,10.2,1c28.2,0,51-22.9,51-51C438.5,200.4,415.6,113.8,387.4,113.8z"/>
			</g>
		</g>
	</g>
	<g>
		<path class="st6" d="M616.9,279.7C457.9,280.5,230,500.4,7.5,518.5c64.8,61.4,152.2,99.3,248.5,99.3
			C447.8,617.7,604.7,468.4,616.9,279.7z"/>
	</g>
	<g>
		<circle class="st12" cx="170.6" cy="528.2" r="9.4"/>
	</g>
	<g>
		<circle class="st11" cx="214.6" cy="417.5" r="9.4"/>
	</g>
	<g>
		<circle class="st11" cx="469.5" cy="293.7" r="9.4"/>
	</g>
	<g>
		<circle class="st7" cx="312.2" cy="543.3" r="9.4"/>
	</g>
	<g>
		<circle class="st12" cx="363" cy="484.9" r="9.4"/>
	</g>
	<g>
		<circle class="st7" cx="256" cy="498.3" r="9.4"/>
	</g>
	<g>
		<circle class="st7" cx="97.7" cy="537.7" r="9.4"/>
	</g>
	<g>
		<circle class="st12" cx="107.2" cy="458.1" r="9.4"/>
	</g>
	<g>
		<circle class="st12" cx="265.4" cy="382.2" r="9.4"/>
	</g>
	<g>
		<circle class="st11" cx="29.9" cy="453.4" r="9.4"/>
	</g>
	<g>
		<circle class="st12" cx="429" cy="444" r="9.4"/>
	</g>
	<g>
		<circle class="st12" cx="520.2" cy="417.5" r="9.4"/>
	</g>
	<g>
		<circle class="st7" cx="345.8" cy="434.6" r="9.4"/>
	</g>
	<g>
		<circle class="st7" cx="429" cy="506.9" r="9.4"/>
	</g>
	<g>
		<circle class="st7" cx="457.6" cy="391.6" r="9.4"/>
	</g>
	<g>
		<circle class="st7" cx="520.2" cy="336.9" r="9.4"/>
	</g>
</g>
</svg>
