<?xml version="1.0" encoding="utf-8"?>
<!-- Generator: Adobe Illustrator 23.0.2, SVG Export Plug-In . SVG Version: 6.00 Build 0)  -->
<svg version="1.1" id="Capa_1" xmlns="http://www.w3.org/2000/svg" xmlns:xlink="http://www.w3.org/1999/xlink" x="0px" y="0px"
	 viewBox="0 0 512 512" style="enable-background:new 0 0 512 512;" xml:space="preserve">
<style type="text/css">
	.st0{fill:#9AF4EF;}
	.st1{fill:#C5F8F1;}
	.st2{fill:#DEFBF2;}
	.st3{fill:#B0EB81;}
	.st4{fill:#94D75B;}
	.st5{fill:#674447;}
	.st6{fill:#43AB5F;}
	.st7{fill:#71BE63;}
	.st8{fill:#DE7E68;}
	.st9{fill:#99645F;}
	.st10{fill:#B66E6E;}
	.st11{opacity:0.6;}
	.st12{fill:#FFFFFF;}
	.st13{fill:#63A0B5;}
	.st14{fill:#556483;}
</style>
<g>
	<g>
		<circle class="st0" cx="256" cy="256" r="371.2"/>
	</g>
	<g>
		<path class="st1" d="M-115,246.4c-0.1,3.2-0.2,6.4-0.2,9.6c0,28.8,3.4,56.8,9.6,83.7c69.3,43.3,225.8,73.5,408.1,73.5
			c117.2,0,223.8-12.5,303.5-32.9c13.8-38.9,21.4-80.7,21.4-124.2c0-17.5-1.3-34.7-3.6-51.5c-90.7-44.3-195-62.2-321.2-62.2
			C111.5,142.2-51.3,199.8-115,246.4z"/>
	</g>
	<g>
		<path class="st2" d="M-113,284.3c-0.1,3-0.2,6-0.2,9c1.6,15.8,4.1,31.3,7.6,46.4c69.3,43.3,225.8,73.5,408.1,73.5
			c117.2,0,223.8-12.5,303.5-32.9c13.8-38.9,21.4-80.7,21.4-124.2c0-8.8-0.3-17.5-1-26.2c-86.8-30.7-151.7-41.8-262.5-33
			C159.1,213.2-44.5,237.8-113,284.3z"/>
	</g>
	<g>
		<path class="st3" d="M-50.9,232c-16.6,4.3-42.2,12.8-64.3,20.5c0,1.2-0.1,2.3-0.1,3.5c0,53.2,11.3,103.8,31.5,149.6
			c37.1,3.3,86.5,7.6,94,7.6c12.2,0,104.4-114.9,104.4-114.9C46.7,291.9-16.5,223.1-50.9,232z"/>
	</g>
	<g>
		<path class="st3" d="M626.9,269.8c-51.2-24.3-93-53.3-122.5-49.7c-37.3,4.5-158.5,57.6-158.5,57.6l161.7,104.9h97.6
			C617.9,347.2,625.5,309.3,626.9,269.8z"/>
	</g>
	<g>
		<path class="st4" d="M605.6,309.7c0-20.2-16.1-98.8-26.3-98.8c-10.2,0-26.3,78.6-26.3,98.8c0,18,9.4,27.9,21.8,29.9v24.7
			c0,2.5,2,4.5,4.5,4.5c2.5,0,4.5-2,4.5-4.5v-24.7C596.2,337.6,605.6,327.7,605.6,309.7z"/>
	</g>
	<g>
		<path class="st4" d="M561.3,319c0-14.1-11.2-69-18.4-69s-18.4,54.9-18.4,69c0,12.6,6.6,19.5,15.2,20.9v17.3c0,1.7,1.4,3.2,3.2,3.2
			s3.2-1.4,3.2-3.2v-17.3C554.7,338.5,561.3,331.6,561.3,319z"/>
	</g>
	<g>
		<path class="st4" d="M28.6,333c0-14.1-11.2-69-18.4-69c-7.1,0-18.4,54.9-18.4,69c0,12.6,6.6,19.5,15.2,20.9v17.3
			c0,1.7,1.4,3.2,3.2,3.2c1.7,0,3.2-1.4,3.2-3.2v-17.3C22,352.5,28.6,345.6,28.6,333z"/>
	</g>
	<g>
		<path class="st4" d="M-16.3,329.5c0-10.6-8.4-51.8-13.8-51.8s-13.8,41.2-13.8,51.8c0,9.4,4.9,14.7,11.4,15.7v13
			c0,1.3,1.1,2.4,2.4,2.4c1.3,0,2.4-1.1,2.4-2.4v-13C-21.2,344.2-16.3,339-16.3,329.5z"/>
	</g>
	<g>
		<path class="st4" d="M-50.9,329.9c0-13.4-10.7-65.9-17.5-65.9c-6.8,0-17.5,52.4-17.5,65.9c0,12,6.3,18.6,14.5,19.9v16.5
			c0,1.7,1.3,3,3,3c1.7,0,3-1.3,3-3v-16.5C-57.2,348.5-50.9,341.9-50.9,329.9z"/>
	</g>
	<g>
		<g>
			<path class="st5" d="M89.1,395.7c-6.6,0-12-5.4-12-12V196.1c0-6.6,5.4-12,12-12s12,5.4,12,12v187.6
				C101.1,390.4,95.7,395.7,89.1,395.7z"/>
		</g>
		<g>
			<path class="st6" d="M201.8,238.7c5.5-7.9,8.7-17.4,8.7-27.8c0-21.8-14.4-40.1-34.2-46.3c-0.2-0.1-0.3-0.3-0.5-0.5
				c1.8-5,2.9-10.3,2.9-15.9c0-26.5-21.4-47.9-47.9-47.9c-3.8,0-7.5,0.6-11.1,1.4C108.9,86.4,91.2,76.4,71,76.4
				c-33.1,0-59.9,26.8-59.9,59.9c0,6.9,1.4,13.5,3.6,19.7c-23.4,11.8-39.5,36.1-39.5,64.1c0,39.6,32,71.6,71.5,71.8
				c10.1,9.2,23.4,15,38.2,15c11,0,21.1-3.3,29.8-8.6c4.5,0.8,9,1.3,13.7,1.3c9.1,0,17.7-1.7,25.8-4.7c23.4,3.3,47,6,48.5,4
				c1.2-1.6-1.5-22-5.1-45.9C199.5,248.4,200.8,243.6,201.8,238.7z"/>
		</g>
		<g>
			<path class="st7" d="M201.8,238.7c5.5-7.9,8.7-17.4,8.7-27.8c0-21.8-14.4-40.1-34.2-46.3c-0.2-0.1-0.3-0.3-0.5-0.5
				c1.8-5,2.9-10.3,2.9-15.9c0-26.5-21.4-47.9-47.9-47.9c-3.8,0-7.5,0.6-11.1,1.4C108.9,86.4,91.2,76.4,71,76.4
				c-15.5,0-29.5,6.1-40.2,15.7c5-1.3,10.1-2.3,15.5-2.3c20.2,0,38,10.1,48.8,25.4c3.6-0.8,7.2-1.4,11.1-1.4
				c26.5,0,47.9,21.4,47.9,47.9c0,5.6-1.1,10.9-2.9,15.9c0.2,0.1,0.3,0.3,0.5,0.5c19.8,6.3,34.2,24.5,34.2,46.3
				c0,10.3-3.3,19.9-8.7,27.8c-0.9,4.9-2.3,9.7-4.2,14.3c1.8,12,3.4,23.1,4.4,31.4c13.8,1.6,24.5,2.3,25.4,1
				c1.2-1.6-1.5-22-5.1-45.9C199.5,248.4,200.8,243.6,201.8,238.7z"/>
		</g>
	</g>
	<g>
		<path class="st4" d="M-99.3,363.8C-53.1,516.2,88.5,627.2,256,627.2s309.1-111,355.3-263.5H-99.3z"/>
	</g>
	<g>
		<polygon class="st8" points="172.2,208.1 280,100.3 495.5,315.9 495.5,399.7 172.2,399.7 		"/>
	</g>
	<g>
		<rect x="250.6" y="395.7" class="st9" width="256.4" height="12.1"/>
	</g>
	<g>
		<polygon class="st10" points="244,399.7 100.3,399.7 100.3,303.9 172.2,268 244,303.9 		"/>
	</g>
	<g class="st11">
		<path class="st12" d="M346.5,21.9c-3.1,0-6,0.6-8.7,1.5c-8.8-12.6-23.4-20.9-39.9-20.9c-16.6,0-31.1,8.3-39.9,20.9
			c-2.8-0.9-5.7-1.5-8.7-1.5C233,21.9,220,35,220,51.1h155.7C375.6,35,362.6,21.9,346.5,21.9z"/>
	</g>
	<g class="st11">
		<path class="st12" d="M423.8,74.1c-1.5,0-2.8,0.3-4.1,0.7c-4.2-6-11.1-9.9-18.9-9.9c-7.9,0-14.8,3.9-18.9,9.9
			c-1.3-0.4-2.7-0.7-4.1-0.7c-7.6,0-13.8,6.2-13.8,13.8h73.9C437.6,80.3,431.4,74.1,423.8,74.1z"/>
	</g>
	<g class="st11">
		<path class="st12" d="M275.6-55.2c-1.5,0-2.8,0.3-4.1,0.7c-4.2-6-11.1-9.9-18.9-9.9s-14.8,3.9-18.9,9.9c-1.3-0.4-2.7-0.7-4.1-0.7
			c-7.6,0-13.8,6.2-13.8,13.8h73.9C289.4-49,283.2-55.2,275.6-55.2z"/>
	</g>
	<g>
		<path class="st12" d="M522.9,96.7c-2.3,0-4.4,0.4-6.4,1.1c-6.5-9.3-17.2-15.4-29.4-15.4s-23,6.1-29.4,15.4c-2-0.6-4.2-1.1-6.4-1.1
			c-11.9,0-21.5,9.6-21.5,21.5h114.8C544.4,106.4,534.8,96.7,522.9,96.7z"/>
	</g>
	<g>
		<path class="st12" d="M157.8,13.2c-2.7,0-5.3,0.5-7.8,1.3c-7.8-11.2-20.8-18.6-35.5-18.6S86.9,3.3,79.1,14.5
			c-2.5-0.8-5-1.3-7.8-1.3c-14.3,0-25.9,11.6-25.9,25.9h138.4C183.7,24.8,172.1,13.2,157.8,13.2z"/>
	</g>
	<g>
		<g>
			<polygon class="st9" points="501.1,334.2 280,113 166.5,226.4 153.8,213.7 280,87.6 513.8,321.5 			"/>
		</g>
	</g>
	<g>
		<g>
			<polygon class="st9" points="249.7,316.8 172.2,278 94.6,316.8 86.6,300.7 172.2,257.9 257.8,300.7 			"/>
		</g>
	</g>
	<g>
		<g>
			<rect x="208.1" y="220.1" class="st13" width="35.9" height="47.9"/>
		</g>
		<g>
			<path class="st14" d="M247,271h-41.9v-53.9H247V271z M211.1,265H241v-41.9h-29.9V265z"/>
		</g>
		<g>
			<rect x="208.1" y="229.1" class="st14" width="35.9" height="6"/>
		</g>
	</g>
	<g>
		<g>
			<rect x="268" y="220.1" class="st13" width="35.9" height="47.9"/>
		</g>
		<g>
			<path class="st14" d="M306.9,271H265v-53.9h41.9V271z M271,265h29.9v-41.9H271V265z"/>
		</g>
		<g>
			<rect x="268" y="229.1" class="st14" width="35.9" height="6"/>
		</g>
	</g>
	<g>
		<g>
			<rect x="327.9" y="220.1" class="st13" width="35.9" height="47.9"/>
		</g>
		<g>
			<path class="st14" d="M366.8,271h-41.9v-53.9h41.9L366.8,271L366.8,271z M330.8,265h29.9v-41.9h-29.9V265z"/>
		</g>
		<g>
			<rect x="327.9" y="229.1" class="st14" width="35.9" height="6"/>
		</g>
	</g>
	<g>
		<g>
			<rect x="291.9" y="315.9" class="st13" width="35.9" height="47.9"/>
		</g>
		<g>
			<path class="st14" d="M330.8,366.8h-41.9v-53.9h41.9L330.8,366.8L330.8,366.8z M294.9,360.8h29.9v-41.9h-29.9V360.8z"/>
		</g>
		<g>
			<rect x="291.9" y="324.9" class="st14" width="35.9" height="6"/>
		</g>
	</g>
	<g>
		<g>
			<rect x="351.8" y="315.9" class="st13" width="35.9" height="47.9"/>
		</g>
		<g>
			<path class="st14" d="M390.7,366.8h-41.9v-53.9h41.9V366.8z M354.8,360.8h29.9v-41.9h-29.9V360.8z"/>
		</g>
		<g>
			<rect x="351.8" y="324.9" class="st14" width="35.9" height="6"/>
		</g>
	</g>
	<g>
		<g>
			<rect x="411.7" y="315.9" class="st13" width="35.9" height="47.9"/>
		</g>
		<g>
			<path class="st14" d="M450.6,366.8h-41.9v-53.9h41.9L450.6,366.8L450.6,366.8z M414.7,360.8h29.9v-41.9h-29.9V360.8z"/>
		</g>
		<g>
			<rect x="411.7" y="324.9" class="st14" width="35.9" height="6"/>
		</g>
	</g>
	<g>
		<g>
			<rect x="124.3" y="315.9" class="st13" width="35.9" height="47.9"/>
		</g>
		<g>
			<path class="st14" d="M163.2,366.8h-41.9v-53.9h41.9V366.8z M127.3,360.8h29.9v-41.9h-29.9V360.8z"/>
		</g>
		<g>
			<rect x="124.3" y="324.9" class="st14" width="35.9" height="6"/>
		</g>
	</g>
	<g>
		<g>
			<rect x="184.1" y="315.9" class="st13" width="35.9" height="47.9"/>
		</g>
		<g>
			<path class="st14" d="M223.1,366.8h-41.9v-53.9h41.9V366.8z M187.1,360.8h29.9v-41.9h-29.9V360.8z"/>
		</g>
		<g>
			<rect x="184.1" y="324.9" class="st14" width="35.9" height="6"/>
		</g>
	</g>
	<g>
		<g>
			<path class="st7" d="M172.6,375.3c-4.6,0-9,0.9-13.2,2.2c-13.3-19.1-35.3-31.7-60.4-31.7s-47.1,12.6-60.4,31.7
				c-4.2-1.3-8.6-2.2-13.2-2.2c-24.4,0-44.1,19.8-44.1,44.1h235.4C216.7,395.1,197,375.3,172.6,375.3z"/>
		</g>
		<g>
			<path class="st6" d="M144.3,375.3c-4.6,0-9,0.9-13.2,2.2c-10.7-15.4-27.2-26.1-46.2-29.9c-19,3.8-35.5,14.5-46.2,29.9
				c-4.2-1.3-8.6-2.2-13.2-2.2c-24.4,0-44.1,19.8-44.1,44.1h207.1C188.4,395.1,168.6,375.3,144.3,375.3z"/>
		</g>
	</g>
	<g>
		<g>
			<path class="st7" d="M170.4,419.3c0-14.2,11.5-25.7,25.7-25.7c2.1,0,4.2,0.3,6.2,0.8c6.7-7.2,16.2-11.8,26.8-11.8
				c20.3,0,36.7,16.4,36.7,36.7H170.4z"/>
		</g>
		<g>
			<path class="st6" d="M222.7,383.3c-8,1.4-15.1,5.4-20.4,11.1c-2-0.5-4-0.8-6.2-0.8c-14.2,0-25.7,11.5-25.7,25.7h82.1
				C252.5,401.4,239.6,386.5,222.7,383.3z"/>
		</g>
	</g>
	<g>
		<path class="st7" d="M256,627.2c133.6,0,250.5-70.7,315.9-176.6H-59.9C5.5,556.5,122.4,627.2,256,627.2z"/>
	</g>
	<g>
		<path class="st6" d="M504.4,531.4H7.6c65.8,59.4,152.7,95.8,248.4,95.8S438.6,590.9,504.4,531.4z"/>
	</g>
	<g>
		<path class="st4" d="M-17.4,356.1c-1.4,0-2.8,0.3-4.1,0.7c-4.1-5.9-10.9-9.8-18.7-9.8s-14.6,3.9-18.7,9.8
			c-1.3-0.4-2.7-0.7-4.1-0.7c-7.5,0-13.7,6.1-13.7,13.7h72.9C-3.7,362.2-9.8,356.1-17.4,356.1z"/>
	</g>
	<g>
		<path class="st4" d="M507,370.1c0-9.7,7.8-17.5,17.5-17.5c1.5,0,2.8,0.2,4.2,0.6c4.6-4.9,11-8.1,18.3-8.1c13.8,0,25,11.2,25,25
			H507z"/>
	</g>
	<g>
		<path class="st12" d="M145.5,55.8c0-16.8,13.6-30.4,30.4-30.4c2.5,0,5,0.4,7.3,1c7.9-8.6,19.2-14,31.8-14
			c24,0,43.5,19.5,43.5,43.5H145.5z"/>
	</g>
	<g>
		<path class="st12" d="M391.1,17.7c0-10.3,8.4-18.7,18.7-18.7c1.6,0,3.1,0.2,4.5,0.6c4.9-5.3,11.8-8.6,19.6-8.6
			c14.8,0,26.7,12,26.7,26.7H391.1z"/>
	</g>
	<g>
		<circle class="st4" cx="240.7" cy="598.3" r="10"/>
	</g>
	<g>
		<circle class="st4" cx="353.8" cy="569.4" r="10"/>
	</g>
	<g>
		<circle class="st3" cx="89.1" cy="502.4" r="6.9"/>
	</g>
	<g>
		<circle class="st4" cx="164" cy="477.8" r="6.9"/>
	</g>
	<g>
		<circle class="st4" cx="42.3" cy="484.7" r="6.9"/>
	</g>
	<g>
		<circle class="st3" cx="202.1" cy="495.5" r="6.9"/>
	</g>
	<g>
		<circle class="st3" cx="346.9" cy="477.8" r="6.9"/>
	</g>
	<g>
		<circle class="st3" cx="486.4" cy="484.7" r="6.9"/>
	</g>
	<g>
		<circle class="st4" cx="289.9" cy="500.8" r="6.9"/>
	</g>
	<g>
		<circle class="st4" cx="436.5" cy="500.8" r="6.9"/>
	</g>
	<g>
		<circle class="st7" cx="164" cy="578.3" r="10"/>
	</g>
	<g>
		<circle class="st7" cx="275.7" cy="565.1" r="10"/>
	</g>
</g>
</svg>
