<?xml version="1.0" encoding="utf-8"?>
<!-- Generator: Adobe Illustrator 23.0.2, SVG Export Plug-In . SVG Version: 6.00 Build 0)  -->
<svg version="1.1" id="Capa_1" xmlns="http://www.w3.org/2000/svg" xmlns:xlink="http://www.w3.org/1999/xlink" x="0px" y="0px"
	 viewBox="0 0 512 512" style="enable-background:new 0 0 512 512;" xml:space="preserve">
<style type="text/css">
	.st0{fill:#8DD9FF;}
	.st1{opacity:0.3;}
	.st2{fill:#FFFFF4;}
	.st3{opacity:0.4;}
	.st4{fill:#BBE6FF;}
	.st5{fill:#3B87C5;}
	.st6{fill:#3C9BD4;}
	.st7{fill:#FFFFFF;}
	.st8{opacity:0.5;}
	.st9{fill:#75C3F0;}
	.st10{fill:#5AB0E2;}
</style>
<g>
	<g>
		<circle class="st0" cx="256" cy="256" r="363.6"/>
	</g>
	<g class="st1">
		<path class="st2" d="M-99.3,178.5c-5.4,25-8.4,50.9-8.4,77.5c0,26.6,2.9,52.5,8.4,77.5c95.6,78.8,332.4,134.6,609.5,134.6
			c13.9,0,27.7-0.2,41.3-0.5c42.8-59.6,68-132.7,68-211.7s-25.3-152-68-211.7c-13.7-0.3-27.4-0.5-41.3-0.5
			C233.1,43.9-3.7,99.7-99.3,178.5z"/>
	</g>
	<g class="st3">
		<path class="st2" d="M-107.6,256c0,76.8,23.9,148.1,64.6,206.8c131.6,37,317,63.8,529.5,74.5c81.3-66.7,133.2-167.9,133.2-281.3
			c0-48.4-9.5-94.5-26.7-136.7c-294.5,6.9-548.6,44.4-698.6,98.2C-106.9,230.2-107.6,243-107.6,256z"/>
	</g>
	<g>
		<path class="st4" d="M142.4,96.9c-12.8,2.8-28.4,32.7-45.5,34.1s-48.3,0-56.8,11.4c-4.1,5.5-9.5,27-14,45.5H207l8.8-53.5
			C201.6,124.4,155.1,94.1,142.4,96.9z"/>
	</g>
	<g>
		<path class="st5" d="M-107.6,256c0,200.8,162.8,363.6,363.6,363.6S619.6,456.8,619.6,256c0-23.3-2.3-46.1-6.5-68.2h-714.3
			C-105.3,209.9-107.6,232.7-107.6,256z"/>
	</g>
	<g>
		<path class="st6" d="M255.4,256c-134.5,0-257.9,29.2-354.6,77.9c34.2,156.9,169.8,276,334.7,285.2c6.8,0.2,13.6,0.6,20.6,0.6
			c0.1,0,0.2,0,0.3,0c6.8,0,13.4-0.4,20.2-0.6c164.7-9.1,300.2-127.9,334.6-284.6C514.2,285.4,390.4,256,255.4,256z"/>
	</g>
	<g>
		<path class="st7" d="M161.8,23c-3.6,0-7,0.7-10.2,1.7C141.3,9.9,124.3,0.2,105,0.2S68.6,9.9,58.3,24.7c-3.2-1-6.6-1.7-10.2-1.7
			c-18.8,0-34.1,15.3-34.1,34.1h181.8C195.9,38.2,180.6,23,161.8,23z"/>
	</g>
	<g>
		<path class="st7" d="M116.3,26.4c0-16.2,13.1-29.3,29.3-29.3c2.4,0,4.8,0.4,7,1c7.7-8.3,18.5-13.5,30.6-13.5
			c23.1,0,41.9,18.8,41.9,41.9H116.3z"/>
	</g>
	<g class="st8">
		<path class="st7" d="M256-3.3c0-13.8,11.2-25,25-25c2.1,0,4.1,0.3,6,0.8c6.5-7,15.8-11.5,26.1-11.5c19.7,0,35.7,16,35.7,35.7H256z
			"/>
	</g>
	<g class="st8">
		<path class="st7" d="M456.8,96.7c0-13.8,11.2-25,25-25c2.1,0,4.1,0.3,6,0.8c6.5-7,15.8-11.5,26.1-11.5c19.7,0,35.7,16,35.7,35.7
			H456.8z"/>
	</g>
	<g class="st8">
		<path class="st7" d="M165.9-34.7c0-9.9,8-17.9,17.9-17.9c1.5,0,2.9,0.2,4.3,0.6c4.7-5,11.3-8.3,18.7-8.3
			c14.1,0,25.6,11.5,25.6,25.6H165.9z"/>
	</g>
	<g>
		<path class="st7" d="M387.2,74.2c0-18.3,14.8-33.1,33.1-33.1c2.8,0,5.4,0.4,8,1.1c8.6-9.3,20.9-15.3,34.6-15.3
			c26.2,0,47.3,21.2,47.3,47.3H387.2z"/>
	</g>
	<g>
		<path class="st4" d="M471.9,187.8c0-36-31-49.9-45.5-56.8c-17.2-8.2-53-5.7-68.2-34.1s-25.6-45.5-34.1-45.5
			c-16.1,0-55.9,7.6-79.5,34.1c-19.3,21.6-15.2,41.7-45.5,56.8c-9.1,4.6-34.1,11.3-34.1,45.5c0,0.9,0,42.6,0,56.8
			c0,42.6,49.2,72,68.2,79.5c18.9,7.6,42.9,193.2,68.2,193.2c24.6,0,53-92.8,68.2-102.3s45.5-11.2,45.5-56.8c0-44.5,0-102.3,0-102.3
			C445.4,225.7,471.9,261.7,471.9,187.8z"/>
	</g>
	<g>
		<path class="st9" d="M26.1,187.8c-1.9,7.7-3.6,14.8-5,20c-2.4,8.9-1,18.2,3.9,26c14.8,23.5,46.3,74.9,49.2,90.3
			c10.7,55.4,34.1,62.5,45.5,90.9c5.9,14.7,36.2,5.7,45.5,0c13-8,34.1-102.3,34.1-102.3l7.8-125H26.1z"/>
	</g>
	<g>
		<path class="st0" d="M233.3,324.2c18.9,7.6,42.9,193.2,68.2,193.2c24.6,0,53-92.8,68.2-102.3s45.5-11.2,45.5-56.8
			c0-44.5,0-102.3,0-102.3c30.3-30.3,56.8,5.7,56.8-68.2H165.1c0,0.9,0,42.6,0,56.8C165.1,287.2,214.3,316.6,233.3,324.2z"/>
	</g>
	<g>
		<path class="st7" d="M142.4,96.9c-12.8,2.8-28.4,32.7-45.5,34.1s-48.3,0-56.8,11.4c-2.9,3.8-6.4,15.7-9.8,28.9
			c16.5,1.3,21-14.7,24.5-20.3c3.8-6.2,24.6-3.3,38.8-5.2c14.2-1.9,13.3,9,27.3,12.3c14.1,3.3,16.7-28.9,23.3-35
			c6.6-6.2,54.9,19.4,65.8,27.5l3.8-4.7l1.9-11.4C201.6,124.4,155.1,94.1,142.4,96.9z"/>
	</g>
	<g>
		<path class="st7" d="M426.5,131c-17.2-8.2-53-5.7-68.2-34.1s-25.6-45.5-34.1-45.5c-16.1,0-55.9,7.6-79.5,34.1
			c-19.3,21.6-15.2,41.7-45.5,56.8c-8.8,4.4-32.2,11.1-33.8,42.2c11.8-16,49.4-25.9,72.9-20.2c15.4,3.7,5,15.4,22.8,15.4
			c13.4,0,12.3-57,21.9-65.9c9.2-8.5,19.3-6.3,25.6,17c9.9,36.9,72.4,9.2,152.9,25.1l0,0C451.1,142.5,435.6,135.4,426.5,131z"/>
	</g>
	<g>
		<path class="st7" d="M-103.4,200.6h718.9c-0.7-4.3-1.5-8.5-2.3-12.8h-714.3C-102,192.1-102.8,196.3-103.4,200.6z"/>
	</g>
	<g>
		<path class="st9" d="M361.1,305.5c0-27-20.8-32.3-20.8-12.3c0,11.6-16.5,22.2-26.8,7.5c-8.4-12-11-46.7-11-62.7
			c0-31.7-25.8-33.4-25.8-1c0,47.4-20.7,39.1-20.7,57.8c0,35,18.5,64.9,0.1,87.6c-0.3,0.3-0.5,0.8-0.7,1.2
			c14.2,56.8,29.9,133.8,46.2,133.8c24.6,0,53-92.8,68.2-102.3c6.2-3.9,15-6.5,23.2-11.4C366.8,400.9,361.1,356.9,361.1,305.5z"/>
	</g>
	<g>
		<path class="st10" d="M155.9,322.1c0-35.7,2.1-56.6-12.1-62.7c-12.6-5.5-26.6,12-30.3-3.3c-6.8-28.1-7.1-37.6-16.2-37.6
			c-8.9,0-12.5,14.1-12.5,49c0,52.7,5.4,60.9-8.4,67c11.4,46.2,32.6,54.2,43.2,80.8c5.9,14.7,36.2,5.7,45.5,0
			c8.7-5.4,21.1-49.5,28.3-78C186.9,352.6,155.9,353.6,155.9,322.1z"/>
	</g>
</g>
</svg>
