<?xml version="1.0" encoding="utf-8"?>
<!-- Generator: Adobe Illustrator 23.0.2, SVG Export Plug-In . SVG Version: 6.00 Build 0)  -->
<svg version="1.1" id="Capa_1" xmlns="http://www.w3.org/2000/svg" xmlns:xlink="http://www.w3.org/1999/xlink" x="0px" y="0px"
	 viewBox="0 0 512 512" style="enable-background:new 0 0 512 512;" xml:space="preserve">
<style type="text/css">
	.st0{fill:#8DD9FF;}
	.st1{fill:#3C9BD4;}
	.st2{opacity:0.35;}
	.st3{fill:#9AF4EF;}
	.st4{fill:#93DDE8;}
	.st5{fill:#52C883;}
	.st6{fill:#926E79;}
	.st7{fill:#FFFFFF;}
	.st8{opacity:0.5;}
	.st9{fill:#34BE69;}
	.st10{fill:#53DC92;}
	.st11{fill:none;stroke:#646464;stroke-width:2;stroke-linecap:round;stroke-linejoin:round;stroke-miterlimit:10;}
	.st12{fill:#A17988;}
	.st13{fill:#674447;}
</style>
<g>
	<g>
		<circle class="st0" cx="256" cy="256" r="361.7"/>
	</g>
	<g>
		<path class="st1" d="M-104.1,289.9C-87,473.8,67.7,617.7,256,617.7s343-143.9,360.1-327.8H-104.1z"/>
	</g>
	<g class="st2">
		<path class="st3" d="M586,404.2c15.9-35.4,26.3-73.9,30.1-114.3h-720.2c2.7,29,8.8,57.1,18,83.7C42.3,387.8,380.6,401.5,586,404.2
			z"/>
	</g>
	<g>
		<path class="st4" d="M-102,306.9h715.8c0.8-5.6,1.8-11.2,2.3-17h-720.2C-103.6,295.6-102.8,301.2-102,306.9z"/>
	</g>
	<g>
		<path class="st5" d="M199.5,143c-37.7,15.1-79.1,16-90.4,24.5c-8.5,6.4-70.9,122.5-141.6,122.5h239.1L199.5,143z"/>
	</g>
	<g>
		<path class="st6" d="M127.9,230.6c-15.1-2.4-45.2-5.6-52.3-5.9c-3.5-0.1-19.2-8.5-27-8.5c-10.7,0-17.2,22.8-29.7,36.8
			c-7.3,8.2-36.7,36.8-63.6,36.8s89.4,0,89.4,0L127.9,230.6z"/>
	</g>
	<g>
		<path class="st5" d="M561.2,289.9c-30.1,0-81.5-68-113-101.7c-26.4-28.3-70.7,17-90.5,17v84.8H561.2z"/>
	</g>
	<g>
		<path class="st7" d="M153.4,45.9c-1.4,0-2.7,0.2-4,0.5c-4.3-4.6-10.4-7.6-17.2-7.6c-4.3,0-8.3,1.2-11.7,3.3
			c-4.3-3.3-9.6-5.3-15.4-5.3c-2.1,0-4.2,0.3-6.1,0.8c-6.7-7.2-16.1-11.8-26.7-11.8c-20.2,0-36.5,16.3-36.5,36.5h73h21.9h39.2
			C169.8,53.3,162.4,45.9,153.4,45.9z"/>
	</g>
	<g class="st8">
		<path class="st7" d="M142.4,124.1c0-10.2-8.3-18.5-18.5-18.5c-1.5,0-3,0.2-4.4,0.6c-4.8-5.2-11.7-8.5-19.3-8.5
			c-14.6,0-26.4,11.8-26.4,26.4L142.4,124.1L142.4,124.1z"/>
	</g>
	<g class="st8">
		<path class="st7" d="M491.3,119c-1.5,0-2.9,0.2-4.3,0.6c-4.7-5.1-11.3-8.3-18.8-8.3c-7.3,0-13.8,3-18.5,7.9
			c-4.7-4.8-11.1-7.9-18.3-7.9c-14.2,0-25.7,11.5-25.7,25.7h36.8h30h36.8C509.3,127.1,501.2,119,491.3,119z"/>
	</g>
	<g>
		<path class="st7" d="M459.1,70.8c0-16.8-13.6-30.5-30.5-30.5c-3.2,0-6.2,0.6-9.1,1.5C410.3,28.6,395.1,20,377.8,20
			c-12.8,0-24.5,4.8-33.5,12.7c-7.4-9.2-18.8-15.2-31.6-15.2c-11.8,0-22.3,5.1-29.7,13.1c-2.2-0.5-4.5-0.9-6.8-0.9
			c-15.7,0-28.4,12.7-28.4,28.4h51.6c-1.8,3.9-2.9,8.2-2.9,12.8H459.1z"/>
	</g>
	<g class="st8">
		<path class="st7" d="M222.8-17.4h56.3c0-8.9-7.2-16.1-16.1-16.1c-1.7,0-3.3,0.3-4.8,0.8c-4.8-7-12.9-11.5-22-11.5
			s-17.1,4.6-22,11.5c-1.5-0.5-3.1-0.8-4.8-0.8c-4.8,0-9,2.1-12,5.5c-5.1-3.4-11.1-5.6-17.8-5.6c-11,0-20.7,5.5-26.6,13.9
			c-1.8-0.6-3.8-1-5.8-1c-10.7,0-19.4,8.7-19.4,19.4h103.6C231.5-7.9,228-13.9,222.8-17.4z"/>
	</g>
	<g>
		<path class="st5" d="M-15.3,289.9c35.3,0,98-24.5,113-45.2c9.3-12.8,20-39.2,30.1-47.5c13.2-10.8,24.5-10.9,37.7-20.3
			c13.2-9.4,71.6-79.1,90.4-79.1s55.1,42.4,79.1,56.5c26.2,15.4,38,54,67.8,67.8c38.6,17.9,54.6,67.8,101.7,67.8"/>
	</g>
	<g>
		<path class="st9" d="M253.1,289.9c13-4.5,21.2-7.4,21.2-7.4c-21.5-3.3-21.8-31.7-44.3-40.9s-43.5,2.1-56.5-15.3
			c-12.2-16.2-8.8-29.2-22.1-32.5c-3.6-0.9-6.6-2.8-9.3-5.3c-4.6,2.1-9.3,4.7-14.3,8.7c-10.1,8.2-20.9,34.7-30.1,47.5
			C88,258,58.6,272.9,29.4,281.8c-2.2,2.9-4.2,5.6-6,8.1H253.1z"/>
	</g>
	<g>
		<path class="st10" d="M403,222.1c-29.9-13.8-41.6-52.4-67.8-67.8c-24-14.1-60.3-56.5-79.1-56.5c-7.2,0-20.1,10.1-34.1,23.2
			c9-3.1,20.4-5.5,31.2-5.3c19.3,0.5,16,16.5,40,31.8c24,15.4,39.6,39.8,43.3,55.8s17.4,24,36.3,31.1c18.8,7.1,24,13.1,31.1,24.9
			c0,0,26.9,5,53.6,9.9C440,253.3,425.2,232.4,403,222.1z"/>
	</g>
	<g>
		<path class="st6" d="M176.9,323.8c0,0-23.1-49.9-41.9-49.9c-42.4,0-43.8,49.9-82.4,49.9"/>
	</g>
	<g>
		<path class="st11" d="M52.5,323.8"/>
	</g>
	<g>
		<path class="st6" d="M498.5,289.9c0.1-0.1,0.4-0.3,0.4-0.3c-22-6.4-18.8-38.5-47.9-35.9c-26.8,2.4-30.6-7.5-47.1-0.6
			c-16.2,6.8-20.7,10.5-44.3,6.7c-23.5-3.8-41.4,20-80.5,19.5c-12.1-0.1-7-2.6-15,10.6L498.5,289.9L498.5,289.9z"/>
	</g>
	<g>
		<path class="st6" d="M201.9,193.8c13.9,13.2,45.2-15.9,51.6-24.4c6.4-8.5,23.7-10.2,37.1-0.6c13.4,9.7,21.3,13.1,35.3,6.6
			c14.5-6.7,21.2-4.3,31.6,0.1c-6.7-8.4-13.7-16.2-22.4-21.3c-24-14.1-60.3-56.5-79.1-56.5c-16.2,0-61.7,51.6-82.5,72
			c7.9-4.1,14.6-6.3,22.8,0.4C204.1,176.5,194.9,187.1,201.9,193.8z"/>
	</g>
	<g>
		<path class="st12" d="M251.5,98.8c-0.8,0.3-1.6,0.6-2.4,1c-0.6,0.3-1.2,0.6-1.8,1c-0.8,0.4-1.5,0.9-2.4,1.4
			c-0.7,0.5-1.5,0.9-2.2,1.5c-0.8,0.5-1.5,1.1-2.3,1.6c-0.9,0.6-1.7,1.3-2.6,1.9c-0.7,0.5-1.4,1.1-2.1,1.7c-1,0.8-2,1.6-3.1,2.5
			c-0.5,0.4-1.1,0.9-1.6,1.4c-1.3,1.1-2.5,2.2-3.8,3.3c-0.1,0.1-0.2,0.2-0.3,0.3c-1.6,1.5-3.3,3-4.9,4.5c9-3.1,20.4-5.5,31.2-5.3
			c19.3,0.5,16,16.5,40,31.8c12.6,8,22.7,18.5,30.2,29c0.9-0.3,1.7-0.6,2.6-1c14.5-6.7,21.2-4.3,31.6,0.1c-2.3-2.9-4.6-5.6-7-8.2
			c-1.6-1.7-3.2-3.4-4.8-4.9c-0.8-0.8-1.7-1.5-2.5-2.3c-2.6-2.2-5.2-4.2-8.1-5.9c-24-14.1-60.3-56.5-79.1-56.5c-1,0-2,0.2-3.2,0.6
			C252.4,98.4,251.9,98.6,251.5,98.8z"/>
	</g>
	<g>
		<path class="st13" d="M65.2,289.9c-17.7,0-19.1-14.8-38.9-14.8S4.5,289.9-1.9,289.9S65.2,289.9,65.2,289.9z"/>
	</g>
	<g>
		<path class="st13" d="M353.5,289.9c-10.6,0-13.8-9.9-49.1-11.7c-15.9-0.8-11.1-2.2-31.1-2.2c-20,0-25.9,7.2-36.1,7.2
			c-10.2,0-20.5,6.7-20.5,6.7H353.5z"/>
	</g>
	<g>
		<path class="st10" d="M448.2,188.2c-14.4-15.4-34-9-52.1,0c10.2,11.7,27.7-4.9,39.9,5.6c15.7,13.4,42.7,53.2,57.7,71.7
			c16.8,20.7,17.6,24.4,67.5,24.4C531.1,289.9,479.7,221.9,448.2,188.2z"/>
	</g>
	<g>
		<path class="st12" d="M188.6,323.8h-25.4c-4.2-35.8-30.6-53.1-45.5-46.6c0,0,28.5-18.1,49.2,5.3
			C187.7,305.9,188.6,323.8,188.6,323.8z"/>
	</g>
	<g>
		<path class="st12" d="M498.9,289.6c-22-6.4-18.8-38.5-47.9-35.9c-26.8,2.4-30.6-7.5-47.1-0.6c-9.3,3.9-14.8,6.7-22.3,7.8
			c1.2,0.6,2.4,1.1,3.4,1.2c7.1,0.9,16,9.5,31.6,2.9c15.5-6.6,16-0.5,28.7,4.3c10.6,3.9,10.5,15.5,16.1,20.7h37.1
			C498.6,289.8,498.9,289.6,498.9,289.6z"/>
	</g>
</g>
</svg>
