<svg height="488pt" viewBox="0 -4 488.00067 488" width="488pt" xmlns="http://www.w3.org/2000/svg"><path d="m408 400c-13.253906 0-24 10.742188-24 24 0 13.253906 10.746094 24 24 24s24-10.746094 24-24c0-13.257812-10.746094-24-24-24zm0 32c-4.417969 0-8-3.582031-8-8s3.582031-8 8-8 8 3.582031 8 8-3.582031 8-8 8zm0 0"/><path d="m480 176h-56c-3.046875-.019531-5.835938 1.699219-7.199219 4.421875l-61.742187 123.578125h-35.058594c-13.253906 0-24 10.742188-24 24v74.230469l-18.527344 6.175781c-3.269531 1.089844-5.472656 4.148438-5.472656 7.59375v32c0 2.6875 1.351562 5.195312 3.597656 6.675781s5.082032 1.734375 7.554688.675781l54.488281-23.351562h15c3.953125 27.53125 27.542969 47.976562 55.359375 47.976562s51.40625-20.445312 55.359375-47.976562h16.640625c4.417969 0 8-3.582031 8-8v-240c0-4.417969-3.582031-8-8-8zm-51.054688 16h43.054688v112h-99.054688zm-116.945312 136c0-4.417969 3.582031-8 8-8h8v16h-16zm-24 93.765625 8-2.671875v4.90625c.03125 2.789062 1.535156 5.351562 3.953125 6.742188l-11.953125 5.121093zm120 42.234375c-22.089844 0-40-17.910156-40-40 0-22.09375 17.910156-40 40-40 22.09375 0 40 17.90625 40 40-.027344 22.078125-17.917969 39.972656-40 40zm64-48h-8.640625c-3.953125-27.535156-27.542969-47.980469-55.359375-47.980469s-51.40625 20.445313-55.359375 47.980469h-40.640625v-64h24c4.417969 0 8-3.582031 8-8v-24h128zm0 0"/><path d="m248 416c-4.21875.003906-8.359375 1.132812-12 3.269531-5.789062-3.332031-12.703125-4.121093-19.09375-2.183593 12.621094-20.542969 8.015625-47.265626-10.753906-62.398438 33.644531-12.28125 56.488281-43.726562 57.769531-79.519531 1.277344-35.789063-19.257813-68.785157-51.9375-83.441407 7.84375-11.765624 12.023437-25.589843 12.015625-39.726562-.089844-27.839844-16.15625-53.152344-41.3125-65.082031 6.105469-9.152344 9.347656-19.917969 9.3125-30.917969 0-23.628906-14.832031-44.714844-37.070312-52.703125-22.234376-7.988281-47.09375-1.15625-62.128907 17.070313-11.277343-11.804688-28.605469-15.554688-43.753906-9.472657-15.148437 6.085938-25.066406 20.777344-25.046875 37.105469 0 12.636719 11.914062 19.582031 26.167969 24.300781-21.179688 2.230469-39.261719 16.277344-46.65625 36.246094-7.398438 19.96875-2.828125 42.40625 11.792969 57.890625-14.207032 20.808594-18.800782 46.714844-12.617188 71.136719 6.1875 24.425781 22.554688 45.019531 44.953125 56.558593-10.125 11.59375-15.683594 26.476563-15.640625 41.867188.039062 35.328125 28.671875 63.957031 64 64 7.0625.160156 14.113281.691406 21.121094 1.597656 4.0625.449219 8.222656.90625 12.320312 1.242188 3.867188 16.488281 16.140625 29.722656 32.296875 34.816406-1.15625 3.324219-1.742187 6.820312-1.738281 10.34375.015625 14.546875 9.835938 27.253906 23.910156 30.929688 14.074219 3.675781 28.859375-2.601563 35.988282-15.28125 5.542968.941406 11.242187-.089844 16.101562-2.921876 3.640625 2.136719 7.78125 3.265626 12 3.273438 13.253906 0 24-10.746094 24-24 0-13.257812-10.746094-24-24-24zm0 32c-2.300781-.019531-4.480469-1.035156-5.976562-2.785156-1.558594-1.664063-3.742188-2.609375-6.023438-2.609375s-4.460938.945312-6.023438 2.609375c-2.558593 3.035156-6.984374 3.675781-10.296874 1.488281-2.1875-1.417969-4.929688-1.679687-7.347657-.703125s-4.207031 3.074219-4.796875 5.613281c-1.445312 6.601563-6.882812 11.582031-13.589844 12.445313-6.703124.863281-13.222656-2.582032-16.292968-8.605469-3.070313-6.019531-2.023438-13.320313 2.613281-18.238281 2.105469-2.300782 2.683594-5.613282 1.484375-8.492188-1.203125-2.875-3.96875-4.792968-7.085938-4.90625-16.042968-.695312-29.070312-13.214844-30.398437-29.21875-.335937-4.023437-3.621094-7.167968-7.65625-7.328125-5.601563-.222656-11.769531-.910156-17.761719-1.597656-7.578125-.964844-15.207031-1.523437-22.847656-1.671875-20.570312.015625-38.863281-13.089844-45.460938-32.574219-6.597656-19.484375-.03125-41.007812 16.316407-53.492187 2.34375-1.792969 3.507812-4.726563 3.03125-7.640625-.472657-2.910157-2.511719-5.324219-5.300781-6.277344-22.257813-7.636719-39.375-25.675781-45.828126-48.304687-6.453124-22.625-1.429687-46.980469 13.449219-65.207032 1.351563-1.65625 1.984375-3.777344 1.761719-5.902344-.222656-2.121093-1.285156-4.066406-2.953125-5.402343-13.234375-10.621094-18.328125-28.433594-12.710937-44.445313 5.617187-16.011718 20.726562-26.734375 37.695312-26.753906 22.175781 0 32.664062-.800781 40.152344-6.023438 2.351562-1.632812 3.65625-4.390624 3.417968-7.242187-.238281-2.851563-1.980468-5.359375-4.570312-6.574219-6.382812-2.5-12.980469-4.417968-19.710938-5.722656-9.648437-2.269531-35.289062-8.292969-35.289062-14.4375-.023438-11.289062 7.832031-21.058594 18.859375-23.460938 11.027344-2.398437 22.234375 3.222657 26.902344 13.5 1.285156 2.804688 4.066406 4.617188 7.152343 4.664063 3.027344-.128906 5.777344-1.804687 7.277344-4.441406 7-14.378907 21.890625-23.210938 37.867188-22.453125 15.972656.757812 29.960937 10.960937 35.566406 25.9375 5.605469 14.980468 1.746094 31.859375-9.808594 42.917968-2.058594 1.988282-2.894531 4.929688-2.191406 7.703126.699219 2.777343 2.828125 4.964843 5.582031 5.742187 18.753907 5.253906 33.417969 19.894531 38.699219 38.640625 5.285156 18.746094.425781 38.886719-12.824219 53.160156-1.875 2.027344-2.574219 4.878906-1.84375 7.542969s2.78125 4.761719 5.425781 5.554687c34.265626 10.226563 55.832032 44.050782 50.644532 79.433594-5.183594 35.378906-35.550782 61.59375-71.308594 61.558594-4.417969 0-8 3.582031-8 8s3.582031 8 8 8c14.015625.023438 26.382812 9.167969 30.515625 22.5625 4.136719 13.390625-.929687 27.914062-12.492187 35.835938-2.558594 1.753906-3.875 4.828124-3.375 7.890624.503906 3.0625 2.726562 5.558594 5.710937 6.40625 2.96875.84375 5.625 2.535157 7.648437 4.863282 1.714844 1.96875 4.285157 2.980468 6.882813 2.703125 2.597656-.277344 4.898437-1.808594 6.15625-4.09375 1.21875-2.308594 3.5-3.859375 6.09375-4.140625s5.15625.746094 6.835937 2.738281c1.5625 1.667969 3.742188 2.613281 6.023438 2.613281s4.464844-.945312 6.023438-2.613281c1.496093-1.746094 3.679687-2.753906 5.976562-2.765625 4.417969 0 8 3.582031 8 8s-3.582031 8-8 8zm0 0"/><path d="m280 152c0 13.253906 10.746094 24 24 24s24-10.746094 24-24c0-13.257812-10.746094-24-24-24s-24 10.742188-24 24zm32 0c0 4.417969-3.582031 8-8 8s-8-3.582031-8-8 3.582031-8 8-8 8 3.582031 8 8zm0 0"/><path d="m56 408c-13.253906 0-24 10.742188-24 24 0 13.253906 10.746094 24 24 24s24-10.746094 24-24c0-13.257812-10.746094-24-24-24zm0 32c-4.417969 0-8-3.582031-8-8s3.582031-8 8-8 8 3.582031 8 8-3.582031 8-8 8zm0 0"/><path d="m218.074219 67.511719c-1.367188 4.019531-2.066407 8.238281-2.074219 12.488281-.046875 17.199219 10.933594 32.492188 27.25 37.941406 16.3125 5.453125 34.28125-.167968 44.582031-13.941406h1.527344c3.425781 9.773438 12.738281 16.25 23.09375 16.058594 10.359375-.191406 19.421875-7.003906 22.484375-16.902344 3.0625-9.894531-.570312-20.636719-9.007812-26.644531 1.367187-4.03125 2.066406-8.257813 2.070312-12.511719.050781-17.203125-10.933594-32.496094-27.246094-37.945312-16.3125-5.449219-34.285156.167968-44.585937 13.945312h-1.527344c-3.425781-9.777344-12.734375-16.253906-23.09375-16.0625-10.355469.191406-19.421875 7.007812-22.484375 16.902344-3.0625 9.894531.570312 20.640625 9.011719 26.648437zm13.925781-27.511719c4.277344-.03125 7.8125 3.328125 8 7.597656 0 .175782-.09375.800782-.101562 1.015625-.179688 2.574219.894531 5.078125 2.882812 6.71875 1.988281 1.644531 4.644531 2.230469 7.140625 1.570313 2.722656-.804688 5.582031-1.03125 8.398437-.664063l.839844.113281c3.234375.421876 6.398438-1.164062 8-4 5.273438-9.574218 16.367188-14.347656 26.945313-11.601562 10.578125 2.75 17.945312 12.320312 17.894531 23.25-.019531 4.328125-1.230469 8.566406-3.496094 12.253906-1.328125 2.214844-1.503906 4.933594-.476562 7.300782 1.027344 2.367187 3.136718 4.09375 5.660156 4.636718 4.054688.878906 6.761719 4.710938 6.238281 8.824219-.519531 4.113281-4.101562 7.148437-8.246093 6.988281-4.140626-.160156-7.476563-3.464844-7.679688-7.605468 0-.175782.097656-.839844.105469-1.015626.152343-2.214843-.621094-4.394531-2.140625-6.015624-1.515625-1.625-3.640625-2.542969-5.859375-2.535157-.691407 0-1.378907.089844-2.046875.261719-2.722656.804688-5.582032 1.03125-8.394532.664062l-.839843-.109374c-3.230469-.421876-6.398438 1.160156-8 4-5.28125 9.550781-16.367188 14.316406-26.933594 11.570312-10.5625-2.746094-17.929687-12.304688-17.890625-23.21875.019531-4.332031 1.234375-8.570312 3.503906-12.257812 1.328125-2.214844 1.503906-4.933594.476563-7.304688-1.03125-2.367188-3.140625-4.089844-5.667969-4.628906-3.972656-.886719-6.644531-4.613282-6.214844-8.660156.433594-4.046876 3.835938-7.121094 7.902344-7.148438zm0 0"/></svg>