<?xml version="1.0" standalone="no"?>
<!DOCTYPE svg PUBLIC "-//W3C//DTD SVG 20010904//EN"
 "http://www.w3.org/TR/2001/REC-SVG-20010904/DTD/svg10.dtd">
<svg version="1.0" xmlns="http://www.w3.org/2000/svg"
 width="200.000000pt" height="200.000000pt" viewBox="0 0 200.000000 200.000000"
 preserveAspectRatio="xMidYMid meet">
<metadata>
Created by potrace 1.11, written by Peter Selinger 2001-2013
</metadata>
<g transform="translate(0.000000,200.000000) scale(0.100000,-0.100000)"
fill="#000000" stroke="none">
<path d="M880 1403 c0 -5 7 -68 16 -141 8 -74 14 -137 12 -142 -2 -4 -59 17
-128 46 -69 29 -130 54 -136 54 -10 0 -79 -199 -71 -206 2 -2 44 -14 93 -25
49 -12 111 -26 137 -33 l48 -11 -77 -85 c-43 -47 -88 -97 -101 -111 l-24 -26
91 -67 c50 -37 95 -64 99 -61 5 2 41 59 81 125 40 66 74 120 75 120 2 0 30
-48 64 -107 92 -164 73 -156 174 -83 48 34 89 66 92 70 3 5 -38 56 -91 115
-53 58 -94 108 -93 109 2 2 56 15 119 30 144 32 160 37 160 45 0 3 -15 51 -33
107 l-32 101 -135 -57 c-74 -32 -136 -57 -137 -56 -1 0 3 35 8 76 4 41 11 108
15 148 l7 72 -117 0 c-64 0 -116 -3 -116 -7z"/>
</g>
</svg>
